<?xml version="1.0" standalone="no"?>
<!DOCTYPE svg PUBLIC "-//W3C//DTD SVG 1.1//EN" "http://www.w3.org/Graphics/SVG/1.1/DTD/svg11.dtd" >
<svg xmlns="http://www.w3.org/2000/svg">
<metadata></metadata>
<defs>
<font id="as_snapper_scriptregular" horiz-adv-x="1187" >
<font-face units-per-em="2048" ascent="1638" descent="-410" />
<missing-glyph horiz-adv-x="599" />
<glyph horiz-adv-x="2048" />
<glyph horiz-adv-x="2048" />
<glyph unicode="&#xd;" horiz-adv-x="2048" />
<glyph unicode=" "  horiz-adv-x="599" />
<glyph unicode="&#x09;" horiz-adv-x="599" />
<glyph unicode="&#xa0;" horiz-adv-x="599" />
<glyph unicode="!" horiz-adv-x="1078" d="M58 214q9 63 59 110q49 46 111 46q60 0 96 -46t27 -110q-11 -64 -60 -111q-49 -46 -110 -46q-60 0 -97 46q-36 47 -26 111zM229 526q59 325 209 635q150 308 262 359q46 20 129 8q84 -12 185 -78q5 -4 0 -8q-111 -81 -214 -214q-99 -128 -191 -279q-88 -148 -155 -284 q-78 -160 -110 -228q0 -6 -8 -3q-48 3 -79 37q-32 35 -28 55z" />
<glyph unicode="&#x22;" horiz-adv-x="789" d="M52 1165q4 19 56 43q54 24 25 62q-1 1 -4 4.5t-10 11.5l-14 16q-24 31 -17 87q6 57 48 108t114 47q73 -6 115 -56t18 -132q-27 -91 -109 -159q-83 -68 -124 -75q-33 -6 -67 12q-32 19 -31 31zM397 1165q3 19 56 43t24 62l-27 32q-24 31 -17 87q6 57 48 108t114 47 q72 -6 114 -56t18 -132q-25 -90 -108 -159q-83 -68 -124 -75q-33 -6 -67 12q-34 19 -31 31z" />
<glyph unicode="#" horiz-adv-x="1290" d="M26 778q-27 21 8 57q33 36 67 44q150 19 252 28q84 174 104 214q-122 -11 -232 -24q-1 -1 -9 3q-27 21 8 57q36 35 67 43q120 17 220 26q102 195 134 234q41 51 87 38q47 -14 63 -40q2 -5 -1 -8q-68 -78 -150 -213l202 12q101 198 144 253q41 51 86 38q46 -13 64 -40 q0 -6 -2 -8q-78 -93 -165 -238q200 4 255 -2q65 -10 79 -57q13 -46 0 -73q-1 -3 -8 -3q-151 27 -387 27l-109 -214q183 4 234 -2q65 -10 79 -57q13 -46 0 -73q-4 -4 -8 -2q-141 26 -356 26q-45 -100 -118 -266q0 -3 -6 -6q-32 -12 -46 38q-13 49 -4 81q12 32 63 151 l-220 -10q-85 -188 -131 -296l-6 -6q-32 -12 -46 38q-14 51 -4 81q26 66 72 174q-61 -5 -272 -27q-4 -2 -8 2zM471 916l217 13l104 214l-209 -12z" />
<glyph unicode="$" horiz-adv-x="831" d="M40 720q-27 81 39 156q22 25 54 -14q31 -37 42 -74q5 -38 -3 -84q-7 -45 56 -72q81 -24 152 14q70 39 102 102q23 36 18 74q-4 39 -62 57q-119 28 -179 42q-79 19 -112 99q-33 106 48 200q82 94 197 115q76 13 153 -7q4 -1 9 7q29 57 64.5 130t36.5 74q21 41 79 -11 q60 -54 38 -52q-19 1 -54.5 -43.5t-87.5 -134.5q47 -23 84.5 -50t50.5 -41q26 -35 11 -75q-13 -39 -39 -85q-25 -43 -26 -75q-1 -33 -12 -24q-20 15 -79 35q-61 21 -68 75q-7 48 31 77t34 62q-7 51 -87 40q-72 -9 -130 -60t-78 -110q-19 -82 79 -103q99 -20 174 -48 q118 -44 125 -117q9 -71 -50 -136q-58 -64 -164 -100q-105 -36 -218 -7q-84 -177 -76 -251q-64 1 -56 79q9 79 64 197q-132 58 -160 139z" />
<glyph unicode="%" horiz-adv-x="1671" d="M41 1031q25 241 163 363q137 122 300 113q57 0 129 -30q72 -29 113 -112q19 -51 16 -105t-25 -130q145 8 242 63q99 56 161 114q65 60 152 171q48 42 134 13q86 -28 150 -100q4 -9 -1.5 -13.5t-20.5 -4.5q-113 0 -307 -155q-195 -156 -400 -380q-208 -228 -378 -445 q-168 -215 -227 -304q-31 -38 -70 -110q-36 -71 -39 -79q-13 -39 -57 18t-31 85q158 206 437 530q195 225 461 541q10 11 7 13.5t-17 -4.5q-89 -42 -230 -42q-80 -159 -224 -251q-145 -93 -299 -33q-146 75 -139 274zM234 1002q-6 -104 38 -145q43 -40 103 -23 q139 40 227 208q-69 -1 -151 29q-81 30 -94 138q-6 37 -28 12q-87 -92 -95 -219zM474 1276q-14 -49 19 -95q35 -47 140 -48q16 46 23.5 78.5t4.5 68t-22 62.5q-53 39 -103 10q-49 -29 -62 -76zM701 336q24 213 154 349q131 137 282 135q89 -2 156 -41q71 -41 93 -113 q42 -131 -37 -302q-72 -158 -197 -247q-124 -89 -249 -66q-102 13 -159 92t-43 193zM885 314q-12 -99 64 -145q155 -54 288 175q74 136 68 231q-6 96 -77 116t-150 -34q-81 -53 -139 -167q-40 -78 -54 -176z" />
<glyph unicode="&#x26;" horiz-adv-x="1565" d="M16 1136q1 36 15 38q4 -1 6 -3q28 -75 302 -68q-28 184 192 314q208 123 463 103q71 -6 186 -65q116 -59 108 -132q-6 -72 -54.5 -117t-154.5 -85q-211 -76 -475 -96q-8 -3 -4 -6q66 -55 163 -53q18 0 46 1.5t41 2t31 -1.5q17 -3 36 -45q21 -42 9 -53q-5 0 -38.5 -2.5 t-42 -3.5t-39.5 -4t-44.5 -5t-42 -6.5t-47.5 -9t-45 -11t-50 -14.5q-100 -32 -203 -135q-102 -101 -125 -223q-28 -148 48 -232q79 -83 192 -95q115 -12 231 50q116 63 164 207q45 129 -16 136q-60 6 -167 -22q-108 -27 -153 -66q-13 -30 -44 43q0 1 -1 3q-32 78 12 110 q49 37 147 73q107 40 225 67q121 29 254 40q127 10 190 -16t100 -146q35 -110 8 -110q-3 0 -6 1q-60 23 -186 40q-123 16 -137 -17l-337 -699q-17 -23 -47 16t-10 95l71 174q5 11 2 13t-13 -6q-193 -130 -396 -115q-210 13 -311 186q-75 129 -36 276q41 147 141 252 q82 85 185 135q101 49 182 58q8 0 8 6q0 4 -7 5q-84 13 -125 47q-45 36 -64 57q-118 2 -163 5q-61 5 -118 25q-58 21 -56 84zM573 1107q24 -3 121 9q105 15 203 38q107 26 186 61q82 37 79 83q-4 43 -92 43q-100 0 -205.5 -30.5t-194.5 -82.5q-92 -55 -97 -121z" />
<glyph unicode="'" horiz-adv-x="400" d="M264 1169q3 19 56 43t24 62l-27 32q-24 30 -18 87t48 108t115 47q71 -4 114 -55q42 -50 18 -133q-25 -89 -109 -159q-83 -67 -123 -75q-33 -6 -67 12q-34 19 -31 31z" />
<glyph unicode="(" horiz-adv-x="622" d="M38 -46q-48 302 9 582t162 501q106 222 229 360q124 139 211 156q61 6 144 4q77 -1 190 -79q11 -7 1 -10q-193 -63 -358 -265q-165 -205 -272 -455q-108 -252 -147 -510q-38 -258 22 -433q1 -7 -5 -8q-54 -3 -119 68q-64 70 -67 89z" />
<glyph unicode=")" horiz-adv-x="842" d="M37 -195q169 176 290 434t171 510q49 250 10 454q-38 203 -191 266q-9 2 6 10q130 69 203 63q74 -6 143 -30q57 -21 93 -162t9 -362q-26 -221 -135 -503q-110 -281 -342 -582q-28 -37 -115 -72q-85 -36 -138 -33q-11 0 -4 7z" />
<glyph unicode="*" horiz-adv-x="973" d="M44 510q62 42 137 81q125 68 144 79q-12 6 -98 77t-107 74q-29 5 -29 64q0 61 54 65q39 3 93 -55q56 -60 139 -117q18 -12 26 126q9 140 9 162q-2 31 80 44q82 15 64 -111q-9 -61 -33 -148q-22 -81 -6 -81q1 0 3 1q31 10 116 71q86 60 153 105q50 33 75 -40 q27 -72 -48 -104q-17 -9 -97 -45q-66 -29 -164 -77l-14 -7q3 -2 27 -16q15 -8 51 -29.5t56.5 -33t49.5 -26.5t52 -23q51 -21 40 -54q-11 -32 -73 -32q-53 0 -135 44q-84 47 -127 73q-24 -22 -25 -163q-1 -142 -21 -136q-26 7 -68 29q-40 21 -43 62q-6 73 11 102t23 101 q-66 -38 -113 -56q-52 -19 -85 -84q-19 -35 -101 -1t-16 79z" />
<glyph unicode="+" horiz-adv-x="1139" d="M15 137q0 125 45 246q45 119 108 224q66 111 151 204q219 215 395 177q21 -4 108 -69q88 -64 40 -169q-82 -161 -289 -306q-83 -54 -150 -57q-66 -1 -88 40q-5 5 -6 0q-80 -143 -102 -278q-31 -211 61 -254q94 -43 242 18q19 8 40 18t37.5 18.5t41 23t38 22.5t40.5 26 t37 24.5t40 26.5t37 25q39 26 128 77q80 45 151 46q51 0 102 -54q51 -53 53 -91q0 -7 -6 -7q-100 -3 -241 -49q-87 -28 -336 -132.5t-351 -119.5q-187 -15 -284 160q-43 93 -42 210zM397 529q20 -35 70 -18q48 16 111 65q62 48 113 104q98 120 69 137t-78 -1 q-81 -31 -164 -112q-82 -82 -120 -150q-8 -16 -1 -25z" />
<glyph unicode="," horiz-adv-x="490" d="M115 -39q3 20 56 43t24 61q-1 1 -4 4.5t-10 12t-14 16.5q-24 31 -17 87q6 56 48 107t115 47q71 -4 114 -55q42 -50 18 -133q-25 -88 -109 -157t-123 -76q-33 -6 -67 13t-31 30z" />
<glyph unicode="-" d="M328 745q-14 36 0 80q15 50 21 68q194 102 404 111q212 11 256 -44q22 -27 49 -77q26 -47 23 -148q0 -17 -16 -7q-178 41 -391 38q-218 -3 -342 -25q-1 -1 -3 2q-1 1 -1 2z" />
<glyph unicode="." horiz-adv-x="474" d="M140 201q8 64 57 107q50 44 113 44q62 0 101 -44q39 -43 31 -107q-7 -63 -58 -107q-50 -44 -112 -44q-63 0 -102 44q-38 44 -30 107z" />
<glyph unicode="/" horiz-adv-x="1433" d="M-23 -103q238 363 513 728q60 79 248 329.5t290 385.5q150 190 187 190q34 7 112 -28q74 -34 133 -106q11 -14 -6 -14q-126 22 -322 -159t-392 -425q-196 -242 -355 -481q-157 -237 -207 -327q-29 -40 -62 -120q-30 -73 -32 -86q-11 -43 -64 19t-43 94z" />
<glyph unicode="0" horiz-adv-x="1400" d="M23 778q70 283 263 534q190 249 426 296q148 25 195 -26t172 -94q224 -76 262 -296q36 -218 -60 -446q-51 -122 -122 -250q-72 -129 -189 -235q-118 -107 -245 -173q-128 -65 -293 -62q-313 4 -397 236q-83 232 -12 516zM177 494q-14 -197 44 -274q59 -78 151 -89 q96 -8 200.5 37.5t216.5 157t202 275.5q97 174 140 342q45 168 19 304q-25 135 -145 173t-225 -5q-105 -42 -196 -124q-90 -83 -160 -185t-114 -186q-120 -232 -133 -426z" />
<glyph unicode="1" horiz-adv-x="750" d="M46 1007q95 32 180 116q90 88 167 180q6 8 26 31.5t27.5 32.5t25.5 29.5t27 30.5t24.5 27t25.5 26.5t23.5 22.5t25 22t22.5 17q65 45 168 11q105 -35 154 -61q11 -6 3 -11q-126 -120 -228 -318q-100 -195 -180 -410q-83 -220 -140 -414q-60 -205 -99 -326q0 -6 -10 -6 q-60 -1 -111 43q-52 45 -76 74q38 250 124 539q60 207 137 437q9 26 -6 6q-30 -34 -78.5 -90t-62.5 -71q-33 -37 -115 8t-54 54z" />
<glyph unicode="2" horiz-adv-x="1423" d="M-16 134q21 63 96 103q82 45 168 66q297 206 556 451q154 145 272 311q118 165 89 283q-31 127 -140 115q-107 -11 -221 -99q-113 -89 -207 -214t-131 -254q-48 -3 -109 70q-60 74 -42 117q133 331 395 448q234 102 447 -3q214 -105 226 -311q8 -160 -131 -328 q-140 -170 -346 -324q-165 -121 -345 -222q-10 -9 2 -12q91 -14 202 -75q42 -22 132 -81q92 -59 187 -90q96 -32 176 -6q81 26 104 173q3 21 24 3q21 -16 16 -41q-15 -72 -73 -153q-59 -81 -169 -120q-111 -39 -269 -5q-159 34 -315 126q-155 92 -228 98q-70 6 -96 1 q-4 -2 -19.5 -8.5t-47.5 -20t-66 -27.5q-117 -49 -128 -44q-30 12 -9 73z" />
<glyph unicode="3" horiz-adv-x="1330" d="M28 361q23 83 59 122q11 6 15 -13q49 -135 173 -256q122 -119 261 -121q182 -2 310 128q130 130 132 275q0 112 -98 201t-329 98q-123 -31 -111 27q12 59 92 88q80 28 198 87q47 23 216 109q123 62 198 125q74 63 17 114q-77 67 -348 -10q-122 -34 -250 -102 q-127 -67 -159 -136q-16 -32 -35 34q-4 14 -8 33q-24 107 -24 136q-5 42 125 134q130 93 303 138q162 42 320 -1q159 -42 240 -251q25 -67 -58 -141q-84 -73 -210 -140q-108 -60 -315 -153q-18 -9 2 -9q189 2 299 -73q112 -73 148 -182q36 -106 4 -226 q-33 -122 -130.5 -217.5t-255.5 -148.5q-160 -54 -382 -33q-122 10 -229 67q-104 55 -160 152q-33 61 -10 145z" />
<glyph unicode="4" horiz-adv-x="1340" d="M-27 653q-6 48 57 79q66 46 225 202q158 155 317 337q133 154 231 298q95 142 77 201q-18 32 45 24q65 -8 99 -57q47 -87 -81 -245q-128 -160 -325 -351q-66 -65 -198 -190t-187 -178q-11 -10 5 -11q8 -1 16 1q21 6 107 14q77 7 264 -17q68 193 125 314q62 133 91 165 q56 62 168 46q113 -17 169 -49q8 -5 2 -10q-103 -102 -177 -232t-140 -304q115 -37 257 -54q140 -15 190 110q-2 16 21 3q23 -14 23 -32q-15 -59 -150 -178q-134 -117 -420 -82q-48 -159 -70 -237q-37 -132 -50 -189q1 -2 -2 -4t-8 -3q-64 -15 -128 46t-64 99q10 67 35 171 q24 93 48 178q-89 34 -202 70q-109 35 -217 19q-109 -16 -117 -13q-30 10 -36 59z" />
<glyph unicode="5" horiz-adv-x="1280" d="M0 378q23 86 56 121q5 8 8 -2q55 -145 175 -268q118 -120 255 -122q99 -2 180 59q82 62 138 150q56 91 77 192q21 104 -7 186q-30 86 -120 131q-90 47 -258 15q-216 -42 -276 -69q-60 -25 -21 75q49 125 151 339q119 252 137 290q22 51 90 37q67 -13 79 -35 q190 56 302 61q115 5 219 -4q14 9 34.5 -13.5t47.5 -77.5q55 -107 -16 -154q-32 5 -130 13q-90 7 -204 -2q-98 -7 -199 -33t-173 -79q-45 -80 -85 -163q-46 -97 6 -81q299 92 464 30t213 -196q40 -111 5 -252q-35 -140 -133 -258q-98 -117 -257 -193q-158 -75 -365 -62 q-122 7 -231 58q-106 49 -154 162q-31 59 -8 145z" />
<glyph unicode="6" horiz-adv-x="1238" d="M28 382q-10 151 44 334q56 183 154 351q128 217 307 373q183 159 377 175q65 5 182 -74q118 -79 67 -87q-113 -18 -236 -76q-128 -60 -239 -139q-241 -174 -316 -352q-6 -15 -1 -17q3 -2 9 6q55 64 153 110q99 47 210 61q107 13 215 -19q105 -32 170 -128 q75 -112 62 -262q-14 -151 -100 -287q-99 -157 -280 -262q-182 -104 -424 -83q-177 15 -261 119q-82 105 -93 257zM240 419q-11 -93 19 -177q30 -85 142 -121q120 -40 266 59q148 102 238 250q80 130 91 267q11 138 -101 218q-111 79 -291 0q-180 -78 -267 -217 q-16 -26 -51 -107q-34 -78 -46 -172z" />
<glyph unicode="7" horiz-adv-x="920" d="M86 1337q-5 55 20 68q194 105 491 139q180 19 334 10q147 -7 212 -17q30 -4 52 -97q23 -92 -1 -110q-165 -126 -319 -305q-157 -181 -265 -365q-112 -188 -159 -356q-46 -169 6 -274q3 -9 -4 -13q-67 -51 -179 0q-112 52 -121 151q-6 68 53 223q58 153 198 346 q238 326 591 572q32 22 19 26q-12 5 -22 7q-35 0 -144 -10q-109 -9 -246 -32q-130 -24 -251 -65q-119 -41 -156 -101q-17 -26 -42 8q-24 32 -44 88q-19 56 -23 107z" />
<glyph unicode="8" horiz-adv-x="1300" d="M35 166q-98 183 37 378q73 104 193 182q121 80 249 129q-94 85 -143 147q-44 58 -55 142q0 160 93 262q95 103 223 146q129 44 262 29q134 -14 217 -86q72 -65 152 -170q81 -105 -95 -255q-104 -89 -313 -186q171 -163 232 -311q63 -149 -30 -323q-65 -97 -191 -168 q-127 -71 -330 -86q-402 -13 -501 170zM208 382q-30 -113 61 -201q92 -88 286 -74q119 17 192 88q75 75 88 163q15 101 -55 217q-68 117 -182 196q-161 -78 -264 -184q-102 -107 -126 -205zM635 1144q29 -86 124 -175q52 24 131 79q78 55 138 119t76 125q18 62 -49 105 q-63 38 -160 22q-98 -17 -165 -73q-124 -115 -95 -202z" />
<glyph unicode="9" horiz-adv-x="1340" d="M35 316q6 56 21 88t32 -6q34 -82 144 -180q108 -97 270 -83q108 7 195 76q84 68 146 160q63 93 101 186q40 98 59 158q6 17 -2 16q-3 0 -8 -6q-50 -69 -152 -127q-101 -58 -220 -70q-254 -24 -387 153q-94 123 -68 303q27 179 147 326q113 139 293 210q182 74 408 9 q146 -42 227 -154t87 -273q11 -264 -167 -567q-127 -219 -303 -351q-175 -131 -360 -160q-234 -34 -422 95q-30 20 -38 80t-3 117zM400 846q6 -146 144 -201q150 -27 259 57q110 86 168 194q26 46 55 130q34 93 38 184q4 94 -36 166t-165 77q-113 3 -222 -92 q-107 -94 -172 -222q-74 -146 -69 -293z" />
<glyph unicode=":" horiz-adv-x="708" d="M197 201q8 64 57 107q50 44 113 44q62 0 101 -44q39 -43 31 -107q-7 -63 -58 -107q-50 -44 -111 -44q-63 0 -102 44q-39 43 -31 107zM366 810q8 64 57 107q49 45 113 45t101 -45q39 -44 32 -107q-9 -63 -59 -107t-111 -44q-63 0 -102 44q-39 43 -31 107z" />
<glyph unicode=";" horiz-adv-x="677" d="M171 -50q3 20 56 43t24 61q-3 3 -27 33t-18 87q6 56 48 107q41 52 115 47q71 -4 114 -55q42 -50 18 -133q-25 -88 -109 -157t-123 -76q-33 -6 -67 13t-31 30zM340 786q8 63 57 106q49 45 113 45t101 -45q40 -44 32 -106q-7 -63 -58 -107q-50 -44 -112 -44q-63 0 -102 44 q-39 43 -31 107z" />
<glyph unicode="&#x3c;" horiz-adv-x="1165" d="M-143 210q108 123 180 203q86 95 130 177q-44 62 -25 125q19 65 70 115q52 52 118 80q68 30 121 24q36 -6 50.5 -24t-0.5 -51q-59 -31 -82 -76q-21 -44 -14 -68q5 -37 90 -92q86 -56 52 -92q-9 -10 -30 -31t-40.5 -43t-35.5 -47v1q-92 -144 -128 -326q-36 -183 83 -216 q75 -21 158 29q80 48 167 118q96 76 170 129q84 60 168 62q72 0 109 -58q37 -56 29 -58q-106 -15 -217 -69q-110 -54 -219 -111q-109 -59 -211 -99q-102 -42 -191 -30q-182 26 -212 226q-30 201 96 422q18 32 -30 66q-60 -64 -136 -144q-95 -100 -147 -147q-7 -7 -13.5 -10 t-14 -2t-12.5 2.5t-16 7t-17 7.5z" />
<glyph unicode="=" horiz-adv-x="889" d="M-1304 -471l1 5q24 112 185 195q162 83 399 137q242 55 527 80q287 26 565 24q64 233 122 387q3 8 0 8.5t-6 -3.5q-7 -12 -55 -75q-42 -55 -101 -114q-58 -58 -117 -95q-59 -38 -100 -17q-112 55 -92 204q19 148 107 307q88 158 209 278q122 122 213 120q121 -1 258 -143 q6 -8 -5 -8q-34 -2 -95 -21q-19 -8 0 -9q18 -3 118 -84q101 -80 74 -80q-47 -1 -100 -88t-99 -196q-46 -111 -81 -219q-37 -115 -47 -156q407 -17 662 -96q39 -12 52 -91q11 -75 -1 -75q-93 32 -295 54q-201 21 -467 27q-69 -166 -181 -299q-111 -133 -266 -195 q-193 -76 -440 -86q-249 -10 -466 27t-358 117q-141 78 -120 180zM-1177 -489q-9 -66 114 -121q123 -56 306 -81q184 -27 387 -14q207 12 360 82q129 57 210 168t129 243q-252 1 -514 -12q-251 -13 -478 -46q-213 -32 -359 -86q-143 -53 -155 -133zM214 286q-12 -53 7.5 -72 t58.5 8q75 59 175 209q101 151 168 310q12 29 -6 18q-99 -60 -238 -211q-138 -152 -165 -262z" />
<glyph unicode="&#x3e;" horiz-adv-x="1253" d="M-170 -103q-32 65 22 141q49 70 181 142q136 75 265 112q-6 61 -16 142q-10 94 -20 118l-309 -311q-17 -22 -60 -41t-61 16q79 86 202 225q9 10 203 231q3 156 112 283q110 128 227 131q71 3 139 -35t90 -91q3 -12 -7 -13q-198 -55 -239 -182q-40 -124 -37 -415 q106 18 304 20q192 2 317 -30q86 -27 104 -74t21 -152q0 -3 -4 -2q-116 71 -358 93q-237 22 -390 2q-12 -119 -57.5 -200.5t-121.5 -146.5q-103 -67 -210 -80q-107 -14 -186 19t-111 98zM-68 -96q48 -58 151 -43q76 10 144 94q67 83 75 210q-47 -9 -151 -48 q-101 -37 -144 -68q-123 -88 -75 -145z" />
<glyph unicode="?" horiz-adv-x="1350" d="M253 191q17 63 73 106q57 45 120 45q62 0 93 -45q32 -45 16 -106q-18 -63 -74 -107t-119 -44t-95 44t-14 107zM352 1243q-6 52 126 146q133 95 305 140q174 46 340 -3q167 -48 230 -280q24 -94 -52 -182q-77 -90 -187 -164q-107 -72 -227 -130q-117 -55 -172 -77 q-61 -25 -81 -64q-19 -37 25 -51q48 -15 95 17q49 32 56 20q29 -56 -32 -100q-80 -59 -169 -81q-108 -31 -169 -11q-58 21 -75 66q-21 57 27 113q47 56 140 103q107 54 221 122q127 75 238 159q109 83 171 164t20 136q-60 75 -178 72q-118 -2 -243 -48q-129 -48 -230 -119 q-106 -75 -133 -137q-18 -38 -33 58v3q-15 98 -13 128z" />
<glyph unicode="@" horiz-adv-x="1850" d="M15 620q22 201 146 377q123 177 281 296q369 278 817 188q224 -66 339 -193q115 -125 139 -282q24 -155 -35 -325q-58 -169 -181 -317q-69 -82 -190 -145q-121 -61 -241 -30q-123 47 -153 151q-30 107 7 259q3 16 -2 15q-2 -1 -6 -6q-58 -61 -148 -176 q-102 -130 -205 -231q-62 -56 -91 -43q-129 52 -115 206q14 155 101 311q90 162 217 283q125 124 230 124q168 -29 286 -161q10 -10 -4 -10q-66 -8 -105 -22q-18 -5 0 -9q41 -16 135 -74q93 -58 106 -89q1 -4 -4 -6q-48 -14 -115 -114q-70 -102 -78 -201q0 -78 54 -82 q76 -1 180 130q96 130 150 313t6 365q-46 182 -278 244q-282 57 -559 -138t-388 -436q-114 -245 -87 -521t328 -382q220 -77 507 32q287 110 516 455q27 32 78 -48q50 -80 24 -127q-141 -247 -469 -350q-327 -105 -591 -69q-358 51 -500 274q-141 224 -102 564zM602 409 q-14 -54 30 -15q44 38 61 57q193 206 311 374q26 39 0 24q-3 -2 -7 -4q-111 -67 -238 -190q-127 -122 -157 -246z" />
<glyph unicode="A" horiz-adv-x="2200" d="M19 -13q-20 42 -20 93q0 62 29 137q55 142 217 258t361 177q202 62 438 89q112 12 334 28q60 68 166 204q106 138 164 222q60 87 139 194q77 105 122 130q55 19 110 19q63 0 124 -25q115 -46 155 -92q1 -1 1 -2q0 -2 -2 -4q-111 -71 -230 -281q-97 -175 -139 -341h9 q58 0 163 11q110 12 173 39q17 7 20.5 -1t-7.5 -30q-23 -46 -69 -71q-101 -45 -187 -55q-90 -10 -132 -12q-48 -163 -67 -316q-12 -92 -12 -187v-38q3 -113 42 -197q24 -56 71 -56q31 0 72 25q102 61 153 126q13 17 26 -19q3 -7 3 -15q0 -34 -44 -84q-52 -63 -125 -102 q-63 -35 -138 -35q-10 0 -20 1q-86 5 -161 105q-64 87 -83 209q-14 93 -14 195q0 32 1 66q5 146 33 317l-265 -10q-164 -209 -370 -422q-204 -210 -402 -336q-197 -125 -366 -125h-3q-171 0 -270 211zM141 178q-10 -33 -11 -63q0 -40 18 -76q39 -60 120 -60q10 0 20 1 q97 6 226 63q131 58 336 211q210 157 434 391q9 9 -2 9q-299 -16 -407 -32q-248 -36 -453 -152q-1 -1 -3 -2q-130 -76 -192 -145q-63 -72 -86 -145zM1513 774h3l205 11q24 102 70 227q49 134 100 239q2 3 2 8q0 3 -1 7q0 4 -2 4q-3 0 -12 -11q-24 -30 -176 -225 q-112 -144 -189 -253q-3 -3 -3 -5t3 -2z" />
<glyph unicode="B" horiz-adv-x="1555" d="M6 1124q19 79 141 172q123 94 321 161q290 98 623 98h39q288 -7 498 -99q212 -92 225 -274q-1 -114 -69 -201q-68 -86 -172 -150q-117 -72 -271 -125q-148 -51 -295 -85q-14 -4 -10.5 -8.5t13.5 -4.5q103 0 167 -8t126 -39q64 -31 96.5 -86.5t38.5 -118.5q98 -5 215 -28 q58 -30 63 -92q-73 6 -130 14q-45 6 -168 6q-26 -90 -125.5 -191t-269.5 -199q-177 -102 -398 -102h-5q-217 0 -294 191q-5 12 -10 -1q-12 -32 -20.5 -59t-13 -45t-6.5 -24q0 -5 -10 -5q-55 3 -106 72q-46 62 -46 88q0 3 1 6q68 313 238 641q111 214 231 361 q122 149 214 182q43 15 105 15q24 0 51 -2q97 -7 208 -81q10 -7 0 -10q-149 -47 -279 -190t-214 -253q-4 -5 -2 -7.5t9 -1.5q197 31 405 92q201 59 362 143q189 98 247 206q16 28 16 54q0 73 -125 126q-156 58 -359 58q-62 0 -128 -5q-281 -23 -548 -117q-179 -67 -322 -147 q-145 -79 -189 -143q-4 -4 -8 -2q-45 27 -57 107q-6 47 -6 77q0 21 3 34zM404 99q-1 -3 -1 -4q0 -4 7 2q58 65 162 112q98 44 218 74q202 49 438 65q-6 45 -53.5 82.5t-128.5 60.5q-59 18 -206 18h-16q-162 -2 -234 -25q-18 -30 -83 -144q-73 -128 -103 -241zM503 -10 q-2 -10 -3 -20q0 -30 22 -50q28 -26 63 -37q45 -13 95 -13q46 0 96 11q105 23 195 76q93 53 162 129q69 77 89 160q-407 -16 -608 -127q-96 -53 -111 -129z" />
<glyph unicode="C" horiz-adv-x="1415" d="M31 256v24q0 123 37 254q42 142 102 255q145 274 376 463q230 186 488 240q80 16 149 16q174 0 285 -102q147 -136 147 -221v-8q-9 -111 -127 -269q-119 -160 -236 -231q-159 -99 -278 -99q-67 0 -121 31q-104 61 -104 163q0 44 19 95q66 175 267 267q129 58 204 58 q42 0 67 -18q-86 -33 -225 -163q-138 -129 -168 -203q-19 -46 -19 -80q0 -20 7 -35q7 -17 30 -17q32 0 95 35q100 54 211 162q114 109 180 216q56 90 56 156q0 12 -2 23q-9 57 -106 57q-26 0 -59 -4q-277 -37 -522 -233q-130 -104 -217 -216q-88 -111 -135 -197 q-43 -78 -85 -200q-41 -119 -45 -237q0 -12 -1 -23q0 -104 41 -190q45 -96 170 -131q67 -18 134 -18q81 0 162 27q146 49 280 141q134 94 246 205q146 144 198 197q24 26 45 26q10 0 18 -6q27 -18 15 -30q-26 -24 -36 -37q-22 -25 -69 -73q-18 -18 -79 -81t-93 -94.5 t-88.5 -81.5t-109.5 -90q-168 -127 -384 -183q-83 -21 -167 -21q-135 0 -272 55q-150 62 -213 175q-64 117 -68 251z" />
<glyph unicode="D" horiz-adv-x="1968" d="M11 68q-7 33 -7 65q0 125 110 228q89 83 262 138q89 197 203 349q190 259 341 305q17 5 39 5q48 0 115 -26q97 -38 167 -105q7 -7 0 -7q-93 0 -253 -132q-163 -136 -294 -319q-6 -11 6 -9q157 16 326 16q74 0 150 -3q251 -10 495 -49q137 214 168 398q11 64 11 118 q0 133 -65 206q-89 102 -238 128q-66 11 -137 11q-88 0 -182 -17q-171 -30 -293 -72q-184 -64 -411 -181q-228 -117 -375 -243q-12 -10 -25 25l-16 58q-12 50 -12 83q0 31 11 47q58 111 225 221q165 108 381 177q180 57 397 77q48 3 95 3q157 0 303 -38q144 -39 272 -126 q126 -89 212 -232q57 -99 57 -217q0 -56 -13 -117q-39 -188 -147 -353q28 -11 59 -21q33 -13 53 -24q33 -23 37 -58q1 -9 1 -16q0 -20 -9 -17q-30 6 -94.5 24t-98.5 24q-129 -174 -344 -322q-227 -155 -493 -225q-215 -58 -427 -58q-53 0 -106 4q-131 10 -278 65 q-143 55 -178 212zM101 89q28 -154 266 -186q72 -10 146 -10q165 0 341 48q109 30 250 98q144 70 282 181q138 112 207 200q-174 22 -405 22q-37 0 -76 -1q-291 -4 -550 -53q-3 -3 -3 -4q-2 -2 -2 -4q-65 -123 -93 -180q-28 -54 -74 -188h-5q-48 0 -87 57q-43 61 -56 86 q13 66 42 151q1 4 -3 4q-183 -79 -183 -192q0 -14 3 -29z" />
<glyph unicode="E" horiz-adv-x="1274" d="M11 322q52 166 272 317q218 151 416 175q4 0 1 3q0 3 -3 3q-181 8 -242 135q-140 2 -205 7q-102 8 -148 42q-39 27 -43 97q-4 42 11 49q4 0 6 -4q10 -41 112 -64q96 -21 254 -23q-4 27 -4 53q0 152 129 283q102 102 250 155q113 40 231 41q39 0 79 -5q137 -3 253 -98 q106 -88 106 -157q0 -7 -1 -13q-1 -138 -273 -236q-270 -98 -558 -123q-8 -2 -3 -8q44 -69 151 -69q11 0 23 1q19 1 54 3t50.5 3t34.5 0t31 -4q23 -8 41 -39q22 -39 11 -53q-77 -6 -158 -17q-109 -13 -235 -59q-117 -43 -224 -123q-106 -80 -160 -216q-28 -75 -27 -142 q0 -104 65 -191q100 -133 268 -133q13 0 26 1q125 9 229 58q106 49 184 113q111 90 195 184q87 99 177 162q17 12 52 -1q34 -13 9 -37q-48 -36 -108 -100q-64 -69 -145 -149q-295 -295 -656 -357q-69 -12 -130 -12q-82 0 -150 21q-126 38 -192 113q-95 102 -95 233 q0 85 39 181zM621 1063q163 10 366 43q187 32 326 106q29 19 57 47q24 24 23 63q-9 57 -133 57q-122 0 -268 -41q-147 -44 -261 -115q-110 -70 -111 -150q1 -5 1 -10z" />
<glyph unicode="F" horiz-adv-x="1821" d="M27 1089q71 134 270 251t443 172q156 35 317 36q57 0 114 -5q219 -17 387 -126q200 -135 274 -387q12 -58 13 -120q0 -82 -22 -171h34q52 0 109 2q12 1 22 1q50 0 76 -16q32 -18 56 -50q18 -23 18 -35q0 -4 -2 -7q-56 5 -113 5q-119 0 -243 -21q-48 -108 -133 -239 q-83 -128 -172 -223q-154 -163 -337 -259q-183 -97 -357 -126q-75 -13 -144 -13q-113 0 -212 34q-157 54 -219 195q-22 38 -22 84q0 31 10 66q24 88 70 126q7 7 10 -2q98 -260 334 -347q79 -30 166 -30q93 0 195 34q198 65 380 307q47 61 114 179q64 112 102 188 q-107 -9 -336 -35q-143 -16 -222 -16q-36 0 -59 3q-73 12 -107 44q-30 28 -30 79q0 8 1 16q0 4 4 3q9 -5 68 -5h38q78 1 218 8q77 4 252 14q85 5 214 14q48 143 67 284q6 39 6 72q0 94 -44 146q-105 107 -315 107q-15 0 -30 -1q-229 -7 -515 -89q-207 -60 -388 -178 q-175 -114 -299 -188q-39 27 -60 110q-11 43 -11 70q0 26 10 39z" />
<glyph unicode="G" horiz-adv-x="1439" d="M-121 1128q8 32 14 4q25 -108 375 -119q164 229 354 362t483 183q35 6 88 6q37 0 83 -3q114 -8 201 -59q90 -53 105 -121q4 -20 4 -39q0 -82 -78 -155q-100 -91 -256 -154q-324 -133 -758 -156q-90 -142 -146 -323q-35 -115 -35 -205q0 -57 14 -104q27 -100 129 -121 q25 -6 52 -6q97 0 226 76q159 92 387 414q15 21 55.5 78.5t61 87.5t52 77.5t56.5 87.5q96 -34 153 -94q49 -57 49 -112q0 -8 -1 -16q-49 -50 -103 -154q-156 -329 -224 -545q127 -16 188 -56q30 -24 43 -83q8 -32 8 -55t-7 -38q-10 -9 -12 2q-15 63 -116 75q-100 12 -150 15 q-11 -3 -16 -14q-86 -207 -206 -336q-116 -137 -315 -220q-124 -50 -247 -50q-63 0 -126 13q-220 51 -269 237q-2 12 -2 24q0 77 81 161q102 107 197 155q98 50 238 93q124 40 255 59q130 19 252 25q55 193 143 395q1 14 -3 16t-12 -8q-136 -163 -299 -277 q-177 -117 -350 -119h-4q-211 0 -300 99q-91 98 -103 245q-3 39 -3 77q0 240 109 435q-173 15 -259 77q-62 45 -62 116q0 22 6 47zM141 -360q-30 -31 -30 -71q0 -50 46 -113q79 -98 243 -114q17 -2 34 -2q150 0 311 133q76 72 130 161q51 83 94 230q5 11 -8 11 q-177 -9 -356 -43q-170 -40 -288.5 -91.5t-175.5 -100.5zM645 1050q-6 -9 -6 -15q0 -11 18 -15q219 8 415 58q202 53 334 125q80 51 80 103q-2 67 -90 74h-18q-196 0 -451 -128q-175 -94 -282 -202z" />
<glyph unicode="H" horiz-adv-x="2155" d="M21 -11q-16 30 -16 76q0 53 22 128q41 140 82 146q57 -212 175 -339q128 -136 308 -143q9 0 17 -1q174 0 373 152q151 117 274 298q122 180 155 248l-738 5q-11 -3 -21 -3q-38 0 -66 40q-13 18 -13 29q0 14 22 13q7 0 16 -1l832 -5q87 192 121 402q7 46 7 85 q0 143 -97 195q-92 49 -208 49q-42 0 -87 -6q-168 -22 -336 -92q-169 -70 -310 -162q-144 -92 -217 -161q-43 27 -74 135q-20 70 -20 106q0 20 6 29q84 119 248 215q161 96 357 131q74 13 149 13q170 0 343 -68q247 -97 384 -420q14 -55 16 -111v-20q1 -47 -7 -94 q-10 -57 -25 -108.5t-38 -112.5h197q72 250 215 472q107 168 217 270q111 105 183 123q16 1 33 1q152 0 323 -123q-279 -72 -505 -346q-129 -153 -249 -387l162 -10q8 3 15 3q28 0 54 -39q16 -25 13.5 -35t-24.5 -6l-252 3q-81 -167 -110 -367q-15 -97 -15 -189 q0 -54 5 -106q13 -139 65 -221h-6q-51 0 -111 60q-63 63 -72 94q-33 120 -33 281q0 49 3 101q10 190 61 344h-202q-40 -114 -142 -245q-102 -130 -183 -209q-152 -149 -344 -236q-191 -88 -376 -106q-47 -5 -92 -5q-130 0 -243 41q-150 54 -221 189z" />
<glyph unicode="I" horiz-adv-x="1292" d="M42 80q23 107 64 113q133 -292 290 -320q16 -3 33 -3q199 0 479 411q63 94 133 228q75 143 132 294q73 193 87 362q1 18 1 35q0 139 -104 181q-44 18 -96 18q-69 0 -150 -32q-140 -55 -285 -170q-247 -198 -409 -450h-7q-47 0 -85 62q-27 45 -27 81q0 17 6 31 q157 357 424 530q194 125 384 125q69 0 136 -16q254 -62 323 -287q29 -100 29 -209q0 -36 -3 -74q-12 -148 -59 -297q-54 -164 -140 -314q-86 -149 -178 -250q-332 -358 -626 -374q-26 -1 -50 -1q-249 0 -299 149q-13 38 -13 86q0 42 10 91z" />
<glyph unicode="J" horiz-adv-x="1240" d="M-574 -672q58 138 196 290q141 156 284 244q240 150 450 207q202 56 411 82q58 83 140 238q175 327 235 628q13 67 13 122q0 70 -21 122q-39 94 -149 94q-93 0 -237 -67q-314 -146 -611 -602q-2 -2 -5 -2q-17 0 -78 38q-52 32 -52 88q0 28 13 61q95 273 303 453 q165 142 386 207q68 20 133 20q149 0 284 -104q90 -70 130 -175q41 -105 48 -222q1 -23 1 -47q0 -183 -81 -398q-91 -241 -205 -446q26 -1 94 -10q50 -6 93 -47q31 -30 31 -116q0 -29 -3 -64q-151 43 -320 51q-74 -108 -176 -225q-102 -120 -253 -251q-137 -118 -315 -227 q-167 -102 -357 -152q-142 -36 -232 -36q-92 0 -130 37q-44 43 -44 105q0 47 24 104zM-484 -790q16 -43 81 -43q57 0 154 34q204 75 386 210q181 135 333 300q151 163 183 236q-66 -8 -259 -47q-177 -36 -377 -147q-235 -130 -382 -294q-124 -137 -124 -219q0 -16 5 -30z " />
<glyph unicode="K" horiz-adv-x="1642" d="M0 997q111 217 249 347q139 131 279 191q131 54 250 54q93 0 180 -33q197 -77 248 -262q14 -52 14 -103q0 -80 -34 -157q-26 -60 -122 -283q-3 -6 2 -11t11 3q103 159 245 307q144 152 288 266q161 129 298 204q113 62 160 62q10 0 17 -3q131 -48 142 -52 q80 -28 151 -122q2 -2 2 -4q0 -4 -8 -6q-142 -24 -311 -100q-177 -80 -332 -179q-165 -106 -309 -227q-140 -119 -225 -204q26 -136 84 -311q41 -128 94 -251q51 -115 92 -161q64 -81 147 -81q50 0 107 29q67 33 134 118q19 -16 19 -39q0 -15 -8 -33q-20 -45 -85 -97 q-63 -51 -138 -82q-67 -27 -147 -27h-16q-89 2 -158 66q-55 52 -110 157q-51 96 -104 225q-23 54 -123 330q-8 20 -14 7q-39 -77 -116.5 -220t-92.5 -171q-138 -249 -198 -409q-2 -5 -10 -5q-53 1 -100 69q-38 55 -38 85q0 6 2 11q21 79 71 194q51 114 111 231 q70 137 192 357q29 53 103 173q72 115 122 226q54 116 69 211q3 17 3 32q0 70 -59 97q-37 17 -83 17q-57 0 -126 -26q-128 -48 -262 -145q-253 -186 -451 -451h-5q-46 0 -83 68q-25 47 -25 83q0 19 7 35z" />
<glyph unicode="L" horiz-adv-x="1221" d="M-314 -313v6q0 118 78 190q83 77 196 117q171 61 445 79q137 270 240 529q2 5 -4 5q-125 -11 -234 -11q-202 0 -353 37q-94 23 -150 74t-61 110q-7 64 14 49q54 -37 165 -65q227 -62 477 -62q102 0 209 10q183 412 304 560q76 102 154.5 162t172.5 78q32 6 64 7 q67 0 129 -30q94 -43 121 -163q8 -33 8 -69q0 -93 -51 -204q-70 -152 -258 -274q-187 -120 -428 -164q-8 -18 -100 -202q-98 -196 -130 -256q-61 -106 -70 -121q224 -15 452 -63q111 -22 220 -70q106 -47 146 -84q41 -38 44 -107v-20q0 -67 -16 -167q-5 -24 -8 -6 q-47 64 -187.5 127t-356.5 110q-219 48 -442 53q-50 -76 -180 -155q-131 -81 -262 -123q-96 -30 -180 -30q-32 0 -61 4q-105 17 -107 139zM-195 -353q15 -18 51 -18q57 0 165 45q153 72 254 185q7 7 -4 7h-31q-122 0 -229 -28q-115 -31 -180 -89q-41 -36 -41 -67 q0 -18 15 -35zM1006 811q2 -3 8 -3q3 0 6 1q186 24 356 197q69 72 111 157q39 82 44 151q1 8 1 15q0 56 -34 77q-12 8 -28 8q-36 0 -94 -36q-82 -51 -193 -244l-174 -308q-3 -7 -3 -12q-1 -2 0 -3z" />
<glyph unicode="M" horiz-adv-x="2270" d="M26 1033q62 114 162 238q102 126 224 216q126 94 265 134q66 19 132 18q79 0 159 -26q203 -69 250 -264q14 -61 14 -122q0 -139 -73 -278q-99 -190 -200 -363q-7 -14 0 -18t15 7q131 190 196 282t178 241t212 261q136 158 185 202q0 1 1 2q2 1 3 2q14 13 35 13 q46 0 124 -65q93 -80 93 -134q0 -10 -3 -19q-12 -30 -74 -138q-67 -115 -137 -243q-39 -68 -133 -244q-50 -92 -133 -275q-6 -15 5 -15q8 1 13 9q175 262 375 527q203 269 439 490q23 7 46 7q72 0 137 -73q78 -87 78 -167q0 -9 -1 -18q-181 -179 -331 -487 q-153 -313 -218 -534q-39 -128 -39 -213q0 -36 7 -65q13 -61 58 -61q29 0 72 25q105 62 157 128q12 18 17 -5q4 -16 9 -39q1 -22 -60 -77q-63 -55 -142 -89q-64 -27 -128 -27l-40 3q-86 11 -131 113q-27 61 -27 148q0 53 10 116q24 163 95 361q111 316 313 655q6 9 1 14 q-4 4 -10 -2q-206 -203 -390 -458q-185 -259 -326 -505q-122 -214 -205 -418q-3 -9 -3 -20q-2 -16 -2 -20q-85 6 -142 54q-37 32 -37 90q0 32 11 72q27 108 91 318q62 206 148 419q69 175 142 316q80 157 174 289q1 4 0 14q-2 12 -11 1q-234 -258 -436 -546 q-87 -123 -394 -553q-84 -117 -238 -373q-31 -69 -40 -93q-2 -5 -11 -5q-56 5 -96 70q-36 53 -36 83q0 7 2 13q47 152 170 396q117 235 206 384q61 105 106 177q66 107 123 232q53 121 68 218q3 17 3 33q0 72 -58 99q-35 16 -79 16q-62 0 -140 -33q-207 -91 -385 -261 q-181 -173 -316 -347h-5q-46 0 -82 70q-22 43 -22 77q0 22 10 40z" />
<glyph unicode="N" horiz-adv-x="1789" d="M12 1009q202 371 496 516q155 77 296 77q85 0 164 -28q211 -73 259 -269q7 -31 8 -66q0 -108 -71 -255q-91 -192 -161 -337q-3 -8 -2 -12t6 -3.5t9 6.5q100 142 290 354q157 174 299 314q153 150 259 233q6 2 14 2q25 0 66 -20q54 -24 103 -61q53 -40 79 -77 q16 -23 16 -42q0 -13 -8 -23q-97 -113 -211 -313q-112 -194 -202 -413q-88 -213 -131 -402q-23 -102 -24 -180q0 -70 19 -121q17 -50 63 -50q35 0 86 28q119 64 168 131q12 16 18 -6q6 -23 9 -40q1 -22 -57 -78q-57 -54 -140 -92q-67 -30 -138 -30q-15 0 -31 1 q-87 8 -139 108q-53 98 -53 242q0 47 6 100q24 209 101 437q62 184 150 364q86 177 174 310q12 18 7 32q-2 6 -8 2q-92 -65 -218 -191q-129 -131 -248 -272q-226 -267 -447 -589q-219 -319 -331 -550q-2 -5 -30 -5q-55 2 -98 69q-35 54 -35 84q0 7 2 13q45 150 180 409 q142 269 218 397q37 64 107 169q70 103 129 217q57 110 74 202q4 19 4 36q0 64 -56 91q-37 17 -83 17q-68 0 -156 -37q-148 -63 -302 -184q-225 -176 -398 -402h-4q-48 0 -84 69q-22 44 -22 78q0 22 9 40z" />
<glyph unicode="O" horiz-adv-x="1582" d="M34 278q-1 25 -1 50q0 192 68 405q78 240 193 414q133 201 346 359q180 134 336 134q29 0 58 -5q82 -15 171 -64q87 -47 87 -60q0 -14 -70 -37q-56 -18 -10 -16q7 0 17 1h10q26 0 82 -7q288 -40 328 -287q11 -67 11 -136q0 -189 -82 -396q-57 -144 -157 -306 q-97 -157 -228 -285q-130 -129 -285 -209q-150 -80 -322 -80h-8q-287 5 -410 156q-124 152 -134 369zM249 252q-1 -21 -1 -41q0 -229 167 -323q72 -40 151 -40q67 0 140 29q159 62 302 204q149 149 265 362q117 214 166 413q28 114 28 209q0 72 -16 133q-36 143 -194 148 h-11q-159 0 -297 -138q-143 -143 -216 -328q-39 -98 -39 -179t39 -143q46 -74 136 -74q61 0 141 34q7 -6 7 -16q0 -35 -88 -123q-81 -81 -176 -81q-37 0 -75 12q-160 50 -170 197q-2 22 -2 45q0 131 55 271q65 169 168 314q105 147 172 191q8 6 5.5 9t-8.5 2 q-136 -46 -273 -206q-135 -156 -232 -356q-127 -263 -144 -525z" />
<glyph unicode="P" horiz-adv-x="1576" d="M31 1119q38 153 343 288q154 67 347 106q176 38 383 38q25 0 50 -1q302 -8 495 -99q206 -99 229 -273q4 -30 4 -59q0 -183 -142 -337q-142 -155 -393 -259q-171 -69 -336 -100q-137 -26 -246 -26q-24 0 -46 1q-29 2 -51 21q-23 21 -29 32q-3 3 -5 0q-70 -125 -156 -315 q-88 -193 -145 -357q0 -5 -10 -5q-55 1 -102 73q-46 70 -49 92q41 187 114 374q75 191 162 352q105 197 216 333q112 138 198 168q43 15 105 15q24 0 51 -2q96 -7 207 -81q10 -7 1 -10q-148 -52 -325 -258q-100 -115 -207 -271q-11 -11 7 -13h29q150 0 308 28 q264 46 454 155q182 103 252 280q21 52 21 95q0 103 -120 154q-142 59 -348 59q-33 0 -68 -2q-215 -11 -466 -79q-245 -70 -432 -165q-187 -94 -237 -172q-11 -7 -23.5 10.5t-27.5 59.5q-18 53 -18 99q0 27 6 51z" />
<glyph unicode="Q" horiz-adv-x="1638" d="M71 577q-4 34 -4 70q0 119 49 254q64 175 203 323q137 145 334 232q184 82 394 82q16 0 33 -1q238 -18 372 -116q135 -98 179 -242q27 -84 27 -179q0 -67 -13 -139q-32 -175 -123 -344q-87 -163 -216 -304q-132 -144 -288 -239q123 -123 245 -202q205 -133 370 -133h14 q168 6 212 156q7 25 30 1q17 -19 17 -37q0 -8 -3 -15q-40 -121 -231 -226q-83 -46 -193 -46q-142 0 -327 77q-219 92 -453 292q-172 -77 -309 -77q-12 0 -23 1q-146 8 -224 63q-70 51 -70 126q0 8 1 16q7 85 134 162q176 107 326 107q17 0 34 -1q162 -13 298 -125 q160 100 284 238q124 137 208 290q127 236 127 450q0 208 -170 287q-102 47 -201 47q-119 0 -233 -69q-208 -124 -351 -293q-69 -81 -130 -193q-58 -107 -95 -220q-19 -62 -19 -121q0 -41 9 -80q24 -94 95 -109q21 -5 43 -5q93 0 199 94q128 115 229 263q11 19 17 19 q9 0 9 -36q0 -8 -1 -18q-3 -87 -52 -172q-49 -86 -130.5 -142t-180.5 -72q-43 -5 -82 -5q-153 0 -240 73q-111 93 -130 238zM174 -5q-14 -24 -14 -45q0 -41 60 -67q23 -10 57 -10q99 0 290 86q-63 61 -188 84q-31 6 -60 6q-85 0 -145 -54z" />
<glyph unicode="R" horiz-adv-x="1514" d="M39 1113q33 134 343 287q290 145 719 145q30 0 62 -1q287 -6 501 -98q213 -91 222 -274q0 -9 1 -17q-1 -80 -35 -144q-38 -71 -116 -150q-82 -82 -205 -151q-125 -70 -261 -126q-135 -55 -266 -94q-136 -39 -217 -53q-13 -3 -6 -15q70 -139 178 -289q111 -155 177 -219 q80 -79 137 -80q5 0 10 -1q55 0 103 32q54 33 113 125q30 -24 30 -56q0 -9 -2 -19q-83 -141 -223 -198q-48 -20 -97 -20q-92 0 -186 71q-115 91 -232 260q-105 154 -209 295q-3 5 -8 0q-65 -117 -122 -256q-47 -117 -109 -294q0 -5 -10 -5q-54 1 -94 70q-41 71 -57 95 q45 204 129 412q85 207 183 379q98 171 199 290q99 117 179 146q43 15 105 15q24 0 51 -2q99 -8 208 -80q8 -7 0 -11q-151 -54 -293 -223q-140 -167 -241 -310q-4 -6 -2 -8.5t10 -1.5q202 30 406 94q208 65 368 156q183 103 261 248q26 46 26 85q0 82 -116 130 q-147 60 -334 60q-47 0 -97 -4q-247 -19 -481 -87t-413 -162q-179 -93 -226 -165q-11 -7 -23.5 10.5t-26.5 58.5q-19 55 -19 102q0 25 6 48z" />
<glyph unicode="S" horiz-adv-x="1751" d="M-14 -1q86 98 273 161q193 63 425 82q107 9 217 9q231 0 471 -40q4 20 4 38q0 86 -95 114q-122 36 -267 59q-179 28 -325 88q-135 55 -135 223q0 20 2 42q23 269 272 475q249 207 500 251q82 14 154 14q197 0 324 -106q104 -86 104 -207q0 -82 -47 -179 q-39 -81 -114 -169q-60 -72 -89 -112q-51 -70 -62 -82q-7 -8 -15 -8q-26 0 -68 84q-17 34 -17 67q0 77 90 151q122 102 168 190q25 48 25 86q0 28 -13 51q-32 51 -128 56h-4q-105 0 -247 -54q-150 -58 -294 -157q-144 -100 -249 -219q-81 -93 -94 -177q-3 -15 -3 -28 q0 -78 98 -107q121 -35 265 -53q201 -29 371 -91q134 -50 134 -197q0 -44 -12 -97q87 -27 156 -77q29 -23 45 -58q14 -33 -3 -30l-3 1q-12 4 -28.5 8t-42 10t-44.5 11q-86 21 -130 26q-158 -229 -427 -341q-236 -96 -574 -110q-33 -1 -66 -1q-287 0 -469 96 q-110 58 -110 144q0 71 77 163zM54 -221q80 -54 309 -73q50 -3 100 -3q181 0 369 45q154 41 287 117q132 77 210 205q1 1 1 2q0 2 -5 2q-198 22 -352 23h-29q-146 0 -270 -9q-395 -35 -554 -137q-102 -67 -102 -117q0 -30 36 -55z" />
<glyph unicode="T" horiz-adv-x="1750" d="M24 971q-6 35 -6 59q0 35 12 51q72 150 286 273q213 124 474 175q127 25 252 25q199 0 391 -63q312 -100 398 -469q6 -40 6 -83q0 -99 -34 -208q-53 -157 -160 -312q-106 -154 -224 -272q-167 -166 -367 -265q-197 -98 -376 -123q-62 -9 -120 -9q-119 0 -219 38 q-147 56 -198 191q-16 33 -16 73q0 36 13 77q30 87 78 126q7 4 10 -2q48 -153 159 -253q112 -102 258 -121q30 -4 60 -4q122 0 258 61q172 77 339 281q82 101 162 234q80 135 128 257q56 140 84 285q10 52 10 94q0 79 -35 124q-88 93 -254 93q-37 0 -78 -5 q-225 -24 -513 -105q-207 -59 -407 -161q-195 -101 -318 -171q-36 26 -53 109z" />
<glyph unicode="U" horiz-adv-x="1816" d="M-11 965q170 339 423 501q181 116 347 116q55 0 109 -13q216 -51 276 -243q28 -90 27 -182q0 -72 -16 -145q-37 -164 -105 -304q-7 -15 -19.5 -41.5t-35.5 -75.5t-42 -89q-73 -156 -120 -300q-35 -107 -36 -173q0 -22 5 -40q6 -26 30 -25q42 0 139 76q104 83 238 267 q135 186 265 392q175 278 321 530q142 246 172 263q98 55 166 55q44 0 77 -23q81 -59 75 -84q-87 -79 -220 -283q-129 -196 -245 -443q-106 -224 -164 -438q-34 -127 -35 -226q0 -70 18 -126q16 -58 71 -57q32 0 76 18q124 53 174 112q13 16 18 -7q4 -22 6 -41 q0 -23 -61 -72t-145 -76q-50 -17 -104 -17q-32 0 -65 6q-85 16 -132 124q-38 83 -38 194q0 47 7 99q24 174 87 363q3 5 -3 13q-5 5 -10 -2q-126 -194 -278 -405q-144 -201 -295 -321q-91 -70 -168 -70q-45 0 -86 24q-109 66 -138 200q-6 25 -6 57q0 95 49 254 q64 208 191 442q25 47 81 144q59 100 102 200q46 102 58 192q2 15 2 29q0 64 -51 89q-37 17 -80 17q-50 0 -110 -23q-112 -42 -233 -135q-118 -89 -241 -221q-116 -124 -217 -263h-4q-47 0 -87 69q-27 49 -27 85q0 18 7 33z" />
<glyph unicode="V" horiz-adv-x="1465" d="M14 1011q93 214 219 341t260 186q125 54 242 54q91 0 178 -33q199 -75 262 -257q25 -72 25 -148q0 -62 -17 -127q-37 -144 -93 -270q-105 -236 -170 -414q-69 -188 -82 -379q0 -10 7 -12q4 -2 6 4q68 189 235 444q175 265 364 499q185 229 358 402q176 176 281 233 q37 20 80 20q63 0 137 -43q124 -72 124 -158q0 -13 -9 -7q-28 17 -68 17q-94 0 -252 -93q-228 -131 -481 -383q-229 -229 -442 -537q-210 -306 -318 -636q-2 -5 -9 -5q-12 0 -39 14q-36 19 -91 61q-44 33 -89 80q-38 41 -38 66q0 105 33 247q30 126 130 370q29 72 92 195 q67 134 123 273q56 141 74 257q4 23 4 43q0 80 -58 107q-39 17 -84 17q-66 0 -148 -36q-139 -63 -278 -181q-206 -176 -351 -394h-4q-46 0 -89 68q-30 49 -30 85q0 16 6 30z" />
<glyph unicode="W" horiz-adv-x="2234" d="M0 1042q88 208 207 330q122 125 255 187q142 63 278 64q92 0 182 -30q222 -76 299 -261q32 -81 32 -167q0 -53 -12 -108q-32 -140 -85 -269q-10 -29 -152 -430q-59 -170 -59 -302q0 -41 6 -79q5 -26 13 -1q45 142 131 327q83 179 196 383q171 309 352 561 q181 257 295 327q24 15 50 15q42 0 89 -39q63 -52 119 -104q14 -15 -5 -24q-20 -9 -50 -56q-88 -132 -171 -310q-78 -167 -139 -340q-77 -214 -119 -413q-34 -162 -33 -262q0 -22 1 -41q0 -6 7 -7t10 7q61 191 212 452q153 262 330 497q182 243 371 429q187 184 311 209 q31 7 61 7q94 0 170 -73q106 -101 106 -142q0 -5 -2 -7q-3 -2 -8 1q-31 15 -71 15q-108 0 -287 -105q-250 -147 -510 -425q-206 -221 -374 -505q-172 -289 -280 -572q-6 -13 -55 3q-51 20 -107 54q-59 37 -105 77q-48 45 -46 75q-3 41 -3 84q0 114 23 240q33 172 84 327 q52 158 106 276q59 128 88 175q17 26 6 42q-8 11 -31 -19q-70 -93 -153 -225q-79 -125 -168 -290q-104 -197 -194 -396q-99 -218 -177 -447q-4 -9 -17 -9q-15 0 -43 12q-55 24 -111 62q-60 39 -108 81t-48 60q0 129 24 244q24 121 121 370q26 68 89 195q67 140 117 273 q50 132 67 257q1 15 1 28q0 93 -66 122q-41 17 -88 17q-53 0 -114 -21q-118 -38 -239 -126q-123 -89 -240 -209q-114 -117 -206 -254q-6 -10 -16 -10q-24 0 -71 62q-50 67 -50 110q0 11 4 21z" />
<glyph unicode="X" horiz-adv-x="1391" d="M24 1113q125 278 349 391q140 69 276 69q49 0 98 -9q185 -35 265 -110q54 -51 100 -171q39 -102 39 -250q0 -28 -1 -59q2 -14 12 -5q148 135 338 295q135 112 249 195q116 84 183 110q33 13 71 12q76 0 169 -50q92 -50 92 -104q0 -28 -25 -58q-23 14 -63 14 q-62 0 -165 -35q-171 -58 -387 -190q-251 -153 -479 -352q-11 -58 -23 -194q-10 -112 -9 -232v-60q1 -120 19 -240q16 -111 58 -168q30 -41 75 -41q17 0 36 6q69 21 178 161q19 -9 22 -35t-15 -47q-141 -201 -273 -201h-8q-136 6 -221 144q-78 122 -112 302q-24 128 -24 246 q0 50 4 99q1 11 -2 13t-11 -6q-192 -200 -323 -395q-157 -236 -250 -490q-9 -25 -9 -51q0 -15 3 -31q2 -11 -3 -11q-4 0 -12 5q-5 3 -11 8q-28 22 -65 71q-34 46 -54 104q-9 24 -9 45q0 29 16 52q123 195 295 395q162 190 447 474q4 59 30 166q28 118 43 216q13 81 13 149 q0 27 -2 52q-7 91 -68 121q-36 14 -77 14q-67 0 -145 -37q-122 -57 -255 -178q-140 -127 -283 -319h-4q-47 0 -83 66q-22 39 -22 77q0 29 13 57z" />
<glyph unicode="Y" horiz-adv-x="1567" d="M23 1104q164 329 402 429q97 40 186 40q94 0 181 -44q169 -85 205 -201q18 -59 18 -123q0 -96 -40 -205q-65 -183 -141 -320q-31 -56 -83 -166q-55 -115 -79 -217q-8 -36 -8 -64q0 -50 25 -75q11 -10 30 -10q54 0 174 78q121 80 251 267q132 189 249 393q138 242 230 417 q97 187 127 195q45 11 83 11q73 0 113 -44q62 -68 57 -94q-132 -125 -239 -320q-108 -196 -188 -408q-115 -307 -186 -638q122 -14 188 -59q50 -35 50 -101q0 -56 -4 -51q0 1 -1 5q-24 84 -270 96q-8 -26 -9 -29q-97 -297 -259 -415q-163 -120 -305 -163q-116 -40 -229 -40 q-83 0 -164 21q-192 51 -213 226v8q0 24 13 60q17 44 38 82q48 97 191 172q142 75 328 125q220 58 442 69q44 158 70 280q30 135 78 279q2 13 -0.5 14t-9.5 -9q-107 -175 -245 -298q-137 -121 -255 -180q-96 -48 -168 -48q-50 0 -89 24q-93 59 -111 194q-4 28 -4 58 q0 85 35 178q47 119 110 240q25 47 87 150q61 100 115 213q53 111 72 204q5 23 5 41q0 60 -46 81q-42 18 -86 18q-116 0 -251 -124q-187 -170 -372 -437q-8 -11 -17 -11q-24 0 -57 76q-32 71 -32 114q0 22 8 36zM306 -366q-15 -35 -15 -69q0 -95 119 -176q90 -62 195 -62 q82 0 172 38q128 49 229 201q100 149 148 327q-231 -15 -441 -73q-273 -73 -407 -186z" />
<glyph unicode="Z" horiz-adv-x="1600" d="M11 -388q-3 12 -3 27q0 42 28 98q38 73 110 142q94 88 238 138t313 69q114 88 257 209q121 104 181 165q72 69 167 171q102 110 188 219q90 115 146 213q46 79 46 129q0 13 -3 23q-93 89 -265 89q-14 0 -29 -1q-194 -8 -399 -73q-219 -70 -419 -181q-194 -108 -278 -203 q-36 27 -56 110q-10 42 -10 70q0 26 9 40q72 105 256 223q182 117 403 191q201 67 394 67q85 0 168 -13q273 -41 350 -356q6 -24 6 -51q0 -116 -106 -283q-132 -209 -277 -366q-205 -219 -383 -379q-14 -14 6 -19q237 -46 357 -195q92 -113 91 -249q0 -44 -9 -89 q-14 -65 -81 -150q-67 -88 -150 -131q11 63 11 122q0 143 -65 264q-109 204 -368 272q-284 -237 -508 -325q-130 -51 -204 -51q-14 0 -25 2q-73 10 -87 62zM139 -240q-2 -4 -2 -7q0 -6 9 -7q2 0 3 1q7 1 18 4q32 10 146 68q85 37 139 75q39 26 39 33q0 3 -6 3h-1 q-204 -11 -345 -170z" />
<glyph unicode="[" horiz-adv-x="1514" d="M44 115q-7 108 67 340q74 228 180 460q109 238 218 408q113 177 183 183q64 6 174 -50q91 -46 90 -59q0 -3 -5 -5q-84 -31 -183 -148q-95 -113 -184 -252q-87 -135 -153 -258q-71 -135 -85 -169q-8 -19 -6 -20.5t15 12.5q10 10 46 51q50 55 103 108q62 62 114 107 q56 48 81 48q91 -3 156 -66t52 -73q-64 -51 -142 -184q-75 -130 -120 -275q-43 -144 -36 -268q7 -123 109 -164q75 -29 155 20q83 50 167 119q71 59 171 134q84 63 169 65q52 0 102 -57t36 -59q-108 -15 -219 -70q-134 -66 -223 -113q-107 -57 -214 -99q-104 -41 -193 -27 q-119 20 -175 118q-57 99 -70 223q-13 126 6 253q20 128 51 207q3 14 -2 14q-7 -3 -10 -6q-95 -92 -188 -256t-145 -274q-90 34 -92 82z" />
<glyph unicode="\" horiz-adv-x="1582" d="M34 182q-5 52 83 263q88 212 257 369q53 -3 111 -17q57 -13 69 -51q-58 -77 -146 -216q-81 -131 -51 -125q1 11 68 90q70 84 148 168q83 90 156 162q75 73 95 75q185 -26 207 -124q-63 -35 -143 -173q-79 -139 -131 -291q-52 -154 -57 -289q-5 -134 79 -167 q73 -28 156 21q83 50 167 119q82 68 170 134q84 63 169 65q54 0 105 -58q52 -58 34 -58q-106 -8 -217 -61q-108 -52 -223 -114t-216 -104q-104 -45 -194 -31q-144 24 -209 215q-64 189 28 494q7 23 -8 12q-8 -6 -24 -24q-43 -49 -104 -128q-24 -31 -71 -93.5t-54 -72.5 q-63 -86 -93 -123q-81 32 -112 57q-37 30 -49 76z" />
<glyph unicode="]" horiz-adv-x="1614" d="M32 178q9 98 87 307q84 219 182 426q101 212 211 395q106 177 174 213q85 46 205 -19q114 -63 102 -71q-91 -35 -192 -147q-95 -107 -187 -241q-87 -129 -146 -239q-60 -110 -69 -140q-7 -22 6 -6q73 69 198 182q135 123 175 120q98 -7 168 -70q69 -62 75 -104 q6 -57 -46 -124q-53 -69 -124 -129q-75 -63 -145 -104q-72 -43 -105 -51q-29 -129 18 -293q47 -163 177 -213q75 -27 158 21q84 48 170 116q101 79 174 130q86 62 170 64q54 0 108 -55q54 -54 38 -54q-80 -3 -197 -62q-115 -58 -243 -123q-120 -61 -252 -107 q-128 -44 -227 -16q-147 42 -246 200q-98 158 -107 333q-1 6 -1.5 21t-0.5 22q0 28 6 31q69 28 153 98q84 72 145 140q62 67 94 124q30 55 -2 53q-56 -3 -178 -112q-123 -111 -176 -180q-149 -200 -242 -474q-85 32 -99 59q-14 29 -9 79z" />
<glyph unicode="^" horiz-adv-x="852" d="M44 1011q21 134 140 271q120 136 327 129q16 -1 46 -12q39 77 100 203q21 42 79 -12q59 -53 38 -51q-18 0 -56 -48t-84 -128q62 -35 112 -84q50 -47 20 -85q-81 -101 -87 -145q-5 -44 -15 -34q-22 17 -64 26q-42 11 -57 46q-31 72 21 105t49 63q-8 84 -145 -5 q-135 -88 -199 -241q-102 -245 39 -296q142 -49 311 215q9 14 42 -35q34 -48 26 -70q-33 -83 -154 -144q-120 -62 -245 -39q-79 -171 -72 -241q-62 2 -56 74q8 74 58 187q-24 12 -48 27q-62 42 -107 101t-19 223z" />
<glyph unicode="_" horiz-adv-x="913" d="M-1269 -475l1 6q31 110 192 193q157 81 396 137q235 54 520 81q279 27 562 25q27 85 48 145q44 120 48 141q6 23 24 65q1 3 -2.5 5.5t-5.5 -0.5q-85 -111 -176 -196q-92 -86 -158 -76q-117 16 -136 131t21 256q40 142 120 274q81 132 165 183q54 -3 139 -50 q85 -46 92 -83q-31 3 -95 -73q-65 -77 -122 -174q-58 -98 -96 -194q-36 -95 -11 -131q29 -21 109 69q78 87 172 216q94 131 171 253q88 139 109 176q30 27 119 -8t101 -99q-159 -138 -263 -386q-103 -246 -169 -449q419 -19 667 -96q39 -16 47 -76q7 -55 5 -89 q-90 30 -306 53q-211 21 -478 27q-68 -164 -170 -298q-101 -134 -256 -195q-192 -76 -440 -87q-249 -11 -465 27q-217 37 -358 117q-142 78 -121 180zM-1142 -492q-9 -66 115 -121q126 -57 306 -82q186 -26 387 -13q206 12 360 81q128 59 198 169q71 111 119 242 q-252 2 -510 -12q-259 -13 -472 -45q-210 -33 -352 -86q-139 -52 -151 -133z" />
<glyph unicode="`" horiz-adv-x="1583" d="M31 235q6 129 77 267q69 135 179 241q109 105 200 104q62 -1 85 -21t85 -79q14 38 60 131q43 87 109 200q58 100 130 198q67 92 124 123q85 46 162 -1q76 -45 114 -88q-127 -76 -281 -269q-152 -192 -259 -408q-111 -263 -137 -436q-17 -116 1 -212q20 -99 100 -136 q73 -33 154 15q79 46 167 120q89 73 172 136q86 65 170 67q53 0 104 -57q52 -56 34 -58q-113 -9 -228 -62q-104 -48 -224 -112q-109 -58 -210 -102q-103 -44 -187 -34q-104 14 -156 91q-52 75 -70 179q-17 106 -7 209q11 109 33 182q14 47 -5 24q-3 -4 -7 -10 q-33 -45 -68 -90q-54 -70 -112 -135q-62 -71 -117 -119q-57 -49 -83 -37q-113 49 -109 179zM239 280q-12 -47 27 -22q35 23 55 43q103 112 276 352q21 29 6 24l-11 -6q-101 -40 -215 -161q-111 -118 -138 -230z" />
<glyph unicode="a" horiz-adv-x="885" d="M20 238q1 118 91 278q76 146 193 254q119 107 223 107q65 0 125 -42q63 -43 113 -99q10 -10 -4 -12q-70 -6 -88 -13q-15 -6 2 -15q148 -82 188 -155q1 -4 -4 -6q-29 -4 -55 -40q-28 -40 -71 -125q-40 -76 -40 -112q0 -8 2 -14q5 -22 20 -22q13 0 32 15q26 20 99 104 q54 61 99 112q62 67 91 96q40 43 70 52q13 2 24 2q53 0 56 -41q-69 -37 -145 -111q-36 -36 -95 -105l-57 -66.5t-39 -46.5q-46 -54 -70 -79q-83 -87 -152 -87q-29 0 -55 15q-53 38 -67 103q-8 40 -8 84q0 80 26 176q2 10 -0.5 11.5t-9.5 -5.5q-74 -90 -95 -116 q-73 -90 -165 -195q-79 -89 -120 -89q-7 0 -12 2q-102 43 -102 171v14zM224 254h3q26 0 118 107q106 121 107 123q9 10 71 89q34 41 67 92q4 6 4 9q0 2 -2 2t-6 -2q-5 -2 -12 -6q-58 -36 -107 -74q-133 -106 -226 -264q-27 -45 -27 -63q0 -11 10 -13z" />
<glyph unicode="b" horiz-adv-x="697" d="M11 339q21 224 189 536q94 173 210 331q118 161 187 189q33 15 76 15q20 0 42 -3q103 -17 171 -82q3 -7 -1 -8q-78 -29 -183 -134q-105 -104 -195 -224q-87 -117 -133 -213q-2 -6 -0.5 -7.5t6.5 0.5q50 46 123 56q15 2 30 2q56 0 100 -33q59 -42 60 -130v-10 q0 -84 -49 -182q-52 -110 -109 -173h5q62 0 223 180q64 71 92 71q3 0 5 -1q17 -1 37 -31q-71 -68 -166 -180q-122 -137 -237 -137q-17 0 -34 3q-54 -59 -140 -98q-68 -29 -123 -29q-47 0 -83 22q-106 61 -106 218q0 25 3 52zM156 292q-11 -45 -12 -77q0 -47 23 -69 q17 -12 37 -12q55 0 134 87q-40 28 -58 89q-15 49 -15 102q0 57 17 120q4 19 -2 20q-2 0 -7 -4q-89 -148 -117 -256zM346 381q5 -64 39 -86q10 14 39 70q27 52 43 119q15 61 15 104v5q-1 44 -20 53q-7 3 -14 3q-23 0 -44 -34q-28 -43 -45 -108q-13 -51 -14 -106q1 -10 1 -20 z" />
<glyph unicode="c" horiz-adv-x="655" d="M46 237q-8 38 -8 80q0 84 32 186q50 155 143 259q106 130 239 151q26 3 50 3q117 0 192 -76q41 -44 42 -83q3 -38 -44 -114q-48 -76 -73 -142q-37 16 -67 55q-14 18 -14 37q0 24 22 50l56 75q13 19 13 32q0 26 -52 28q-55 -8 -115 -62q-59 -53 -119 -135 q-59 -82 -89 -154q-31 -73 -37 -152v-15q0 -66 41 -94q29 -13 63 -13q23 1 49 7q62 16 129 65q65 49 108 96q48 51 78 80l23 23l30.5 30.5l28.5 28.5q44 46 118 110q28 22 49 22q31 0 48 -48q-31 -15 -65.5 -42t-60 -52.5l-72 -72t-76.5 -75.5q-35 -36 -96 -97 q-41 -42 -101 -87q-59 -43 -132 -72q-51 -14 -99 -14q-62 0 -118 23q-97 41 -116 159z" />
<glyph unicode="d" horiz-adv-x="905" d="M31 223v8q0 129 64 260q64 137 169 241q102 104 197 104q68 -3 97 -31q32 -29 78 -69q21 59 66 160q40 90 98 191q56 103 115 181q60 83 123 128q20 13 49 13q15 0 32 -3q97 -24 173 -79q22 -17 22 -25q0 -3 -3 -4q-76 -39 -185 -176q-114 -141 -213 -308 q-100 -165 -166 -334q-56 -161 -56 -213v-6q5 -47 23 -54q20 -6 51 21q46 50 81 89q84 94 125 139q138 151 200 168h8q40 0 55 -44q-77 -47 -169.5 -135t-174.5 -191q-49 -60 -67 -81.5t-49.5 -52.5t-59.5 -50q-29 -20 -62 -20q-16 0 -33 5q-52 17 -77 58q-32 55 -32 139 q0 36 6 78q8 57 22 97q9 27 -6 18q-15 -8 -22 -20q-8 -12 -60 -84t-111 -141q-123 -156 -183 -156q-5 0 -9 1q-116 48 -116 178zM236 270q-2 -10 -2 -17q0 -14 8 -16h2q11 0 34 22q53 50 118 131q74 90 125 163q33 44 57 87q6 10 6 14q0 2 -1 2.5t-3 0.5q-5 0 -15 -5 q-98 -45 -182 -135q-128 -149 -147 -247z" />
<glyph unicode="e" horiz-adv-x="669" d="M52 360q10 72 37 156q44 123 134 241q113 134 226 168q33 10 68 10q33 0 66 -9q87 -28 128 -80q24 -35 24 -81q0 -31 -11 -68q-25 -88 -188 -201q-143 -98 -230 -98q-12 0 -23 2q-20 -65 -21 -120q0 -26 5 -49q15 -72 72 -72h10q77 0 153 60q83 68 134 120q14 14 63 65.5 t91 92.5q56 53 108 90q20 13 38 13q19 0 36 -14q26 -20 26 -29q0 -3 -3 -4q-79 -36 -162 -114q-36 -33 -142 -142q-95 -97 -156 -144q-71 -53 -135 -80q-54 -23 -116 -23q-11 0 -23 1q-83 8 -127 46q-56 43 -74 117q-12 49 -12 97q1 24 4 49zM309 494q-3 -6 -3 -9q0 -4 4 -5 q1 -1 4.5 -1t8.5 1q26 1 85 30q58 30 108 66q52 39 89 81q39 44 38 80q-4 48 -56 48q-14 0 -31 -3q-160 -59 -247 -288z" />
<glyph unicode="f" horiz-adv-x="766" d="M-83 -306q22 218 119 496q49 138 100 255q38 89 89 188q-52 -17 -75 -17h-6q-31 1 -73 43q-20 19 -20 35q0 11 9 21q23 24 71 43q45 16 98 25q53 11 74 12q19 37 95 178q60 113 138 232q78 121 157 212q83 95 154 119q23 8 48 8q23 0 47 -6q54 -12 99 -33t72 -42 q19 -14 19 -21q0 -3 -5 -5q-145 -53 -326 -265q-101 -120 -253 -348q-2 -3 0 -6q0 -4 6 -3q25 2 72.5 4.5t61.5 3.5q22 0 67 1t67 1q63 -4 86 -20q22 -16 22 -52v-6q-18 0 -112 -2q-38 -2 -95 -8q41 -55 42 -135v-26q0 -68 -13 -135q-17 -79 -47 -159q-29 -78 -49 -125 q-40 -95 -126 -258t-183 -312q-100 -148 -195 -233q-54 -50 -97 -50q-32 0 -59 28q-84 81 -84 267q0 44 5 95zM16 -532q8 -45 30 -48h4q20 0 46 23q27 23 51 52q114 117 231 323q78 137 178 359q101 231 101 370v18q-10 134 -131 134q-26 0 -56 -6q-54 -44 -135 -199 q-73 -141 -143 -320q-59 -148 -103 -305q-38 -128 -59 -241q-16 -88 -16 -134q0 -15 2 -26z" />
<glyph unicode="g" horiz-adv-x="859" d="M-95 -635q-28 70 -28 132q0 65 31 120q61 110 159 190q51 41 96 71.5t88.5 55.5t49.5 29q10 6 30 18.5t29 18.5q6 13 21 55q15 37 51 141q38 109 47 144q3 14 -6 8q-3 -2 -7 -6q-4 -7 -50 -68q-40 -53 -97 -110q-56 -56 -116 -94q-39 -24 -68 -24q-18 0 -32 8 q-109 55 -109 172q0 26 6 56q28 162 120 297q91 136 191 219q101 82 178 82h2q121 -2 258 -144q11 -9 -5 -9q-46 -1 -96 -19q-11 -5 1 -9q48 -18 114 -76q81 -75 81 -86q0 -2 -3 -2q-66 -1 -119 -126q-24 -54 -46 -114q-25 -68 -46 -121q-5 -13 -2.5 -14.5t12.5 6.5 q76 63 102 89q27 27 99 107q79 88 133 143q31 39 57 54.5t44 7t29 -36.5q-87 -82 -213 -224q-131 -147 -312 -277q-31 -73 -52 -116q-29 -66 -76 -160q-48 -99 -114 -207q-151 -248 -279 -276q-10 -2 -20 -2q-31 0 -64 14q-44 20 -69 83zM-9 -591q15 -44 40 -44q22 0 52 33 q67 78 127 198q34 69 65 148q12 30 27.5 68.5t19.5 47.5q4 13 -1 15t-18 -6q-119 -64 -227 -173q-97 -106 -97 -212q0 -38 12 -75zM211 207q9 -9 21 -9q16 0 35 16q70 63 149 171q74 104 145 265q4 11 4 16t-3 5t-7 -3q-138 -79 -221 -178q-81 -97 -113 -180 q-19 -47 -19 -75q0 -19 9 -28z" />
<glyph unicode="h" horiz-adv-x="820" d="M26 157q12 91 84 281q75 202 175 403q102 210 221 400q116 187 223 275q23 18 54 18q38 0 88 -27q91 -49 119 -98q3 -7 -3 -8q-91 -34 -192 -155q-96 -112 -190 -257q-86 -133 -149 -255q-66 -129 -69 -143q-4 -11 1 -8q3 1 8 6q41 40 154 153q92 92 131 92h2 q92 -7 157 -69q53 -52 53 -67q0 -3 -2 -4q-52 -37 -110 -119t-90 -157q-34 -76 -39 -127q-2 -25 9 -33t36 2q12 4 68 63q54 58 68 72q24 25 78 78q55 53 84 75q36 29 82 61q29 19 51 19q17 0 30 -11q21 -18 21 -29q0 -4 -3 -8q-61 -23 -121 -66q-52 -36 -104 -88 q-59 -60 -92 -103q-45 -52 -88 -106q-39 -48 -88 -103q-47 -53 -115 -61q-7 -1 -14 -1q-41 0 -72 26q-52 38 -62 103q-6 38 -6 76q0 31 4 63q7 66 51 201q3 11 0.5 12t-10.5 -7q-89 -85 -179 -242q-88 -153 -138 -260q-42 13 -83 47q-35 26 -35 68q0 8 2 18z" />
<glyph unicode="i" horiz-adv-x="432" d="M38 316q3 43 16 93q15 60 20 71q27 66 58 119q34 58 60 76q22 15 51 15q46 0 108 -38q83 -51 83 -60q0 -2 -4 -2q-32 -3 -74 -61q-44 -61 -75 -125q-28 -56 -39 -102t-7 -61q1 -10 14 -21q13 -9 45 17q12 10 131 127q96 93 172 178t121 87q49 0 64 -20q12 -14 12 -21 q0 -2 -1 -3q-65 -21 -131 -78q-83 -69 -193 -189q-147 -160 -160 -173q-33 -37 -79 -69q-26 -16 -52 -16q-20 0 -42 9q-59 25 -85 103q-15 49 -15 103q0 20 2 41zM310 813q-2 12 -2 23q0 49 28 96q34 56 90 79q26 11 50 11q27 0 51 -14q44 -27 52 -87q2 -11 1 -23 q0 -48 -27 -93q-35 -60 -90 -82q-25 -10 -47 -10q-28 0 -53 15q-45 26 -53 85z" />
<glyph unicode="j" horiz-adv-x="418" d="M-544 -583q-15 52 -15 100q0 70 33 133q55 101 152 186q78 66 173 126q103 71 142 95q26 16 31 33q3 18 48 194q47 181 88 295q39 107 70 114q21 5 41 5q60 0 115 -40q60 -44 60 -57q0 -4 -3 -5q-45 -25 -77 -78q-33 -59 -76 -175q-12 -34 -24 -67t-19 -51.5t-9 -24.5 q-5 -11 -2.5 -13.5t12.5 4.5q3 2 21.5 15.5t40.5 32t51 45.5q49 45 129 132q45 51 80 94q46 56 97 65q32 5 54 -13q18 -14 18 -23q0 -3 -2 -5q-38 -19 -89 -64t-145 -137q-119 -124 -284 -250q-30 -24 -33 -32q-45 -106 -101 -226q-26 -52 -89 -173q-62 -114 -187 -262 q-85 -85 -166 -88q-32 0 -75 31q-44 30 -60 84zM-451 -569q15 -36 39 -36t57 37q67 75 134 201q43 78 78 155q27 59 55 128q4 10 1.5 12.5t-10.5 -2.5q-153 -89 -247 -188q-120 -127 -120 -237q0 -36 13 -70zM248 858q-2 12 -2 24q0 47 29 94q32 56 89 80q25 10 49 10 q27 0 52 -14q45 -28 52 -86q2 -11 2 -22q0 -48 -28 -96q-34 -57 -90 -80q-26 -10 -49 -10q-28 0 -51 15q-45 25 -53 85z" />
<glyph unicode="k" horiz-adv-x="830" d="M13 157q13 100 92 303q80 203 182 415q94 194 208 384q106 172 172 208q40 17 81 17q58 0 121 -34q48 -23 77 -45q26 -24 15 -29q-83 -30 -174 -128q-94 -100 -173 -212q-90 -127 -156 -248q-64 -117 -75 -147q-3 -13 -1 -13t8 7q71 71 160 152q94 88 134 88h3 q96 -11 160 -70q65 -61 69 -105v-8q0 -49 -35 -100q-78 -115 -220 -196q-66 -38 -96 -42q0 -56 30 -123q10 -22 29 -21q28 0 76 47q81 81 161 175q83 97 161 163q24 21 51 21q16 0 34 -8q35 -15 35 -30q0 -5 -4 -11q-127 -70 -238 -205q-110 -134 -211 -233 q-68 -66 -136 -66q-44 0 -88 28q-125 79 -142 279q75 33 140 89q148 124 189 221q10 22 7 33t-19 10q-56 -5 -138 -81q-177 -157 -278 -367q-28 -53 -63 -132q-24 -54 -48 -124q-81 31 -93 60q-8 18 -8 50q0 13 1 28z" />
<glyph unicode="l" horiz-adv-x="446" d="M54 308q2 121 61 317q62 202 164 407q79 160 177 291q98 132 199 179q42 19 79 19q54 0 99 -39q66 -55 66 -121q0 -13 -3 -27q-12 -58 -82 -165q-69 -108 -162 -228q-104 -137 -215 -266q-116 -135 -171 -190q-8 -2 -24 -59q-16 -56 -22 -118q-1 -12 -1 -23q0 -44 13 -71 q6 -13 20 -13q20 0 57 30q23 20 147 158q128 143 174 180t90 48q7 2 14 2q35 0 58 -47q-76 -44 -137 -94q-67 -55 -169 -169q-75 -85 -151 -168q-34 -38 -76 -66q-26 -17 -53 -17q-20 0 -41 9q-111 50 -111 241zM332 663q2 0 11 9q51 56 129 155q73 95 145 196 q82 116 141 215q45 77 45 102q0 7 -3 10q-6 5 -14 5q-29 0 -84 -67q-65 -79 -148 -208q-81 -127 -137 -230q-61 -116 -81 -168q-6 -17 -4 -19z" />
<glyph unicode="m" horiz-adv-x="1218" d="M-37 148q4 50 40 146q36 94 81 183q52 100 101 172q55 85 96 123q9 9 29 9q25 0 66 -14q73 -28 85 -63q-69 -92 -124 -188q-71 -112 -81 -147q-4 -10 -2 -12t10 6l64 77l185 220q117 148 180 174q10 2 19 2q79 0 188 -106q4 -7 -8 -14q-30 -25 -109 -135 q-67 -93 -127 -218q-3 -6 1 -7q5 -2 8 2q15 16 66 77q48 57 100 112q107 110 166 144q24 17 56 17q41 0 95 -29q76 -50 87 -65q4 -4 -2 -8q-56 -21 -138 -169q-75 -142 -79 -182t21 -41q24 0 86 65q55 59 96 100q48 46 81 79q32 31 88 89q82 83 118 86q36 4 56 -16 q16 -19 18 -30q-56 -36 -125 -88q-63 -48 -208 -191l-153 -167q-33 -36 -79 -65q-26 -16 -57 -16q-22 0 -46 8q-58 20 -78 81q-14 47 -14 102q0 17 1 36q7 75 27 134q0 13 -9 5q-62 -48 -154 -160q-79 -99 -162 -228q-5 -8 -10 -2q-38 32 -80 48q-64 22 -62 75q0 59 33 138 q29 67 71 176q2 8 0.5 8.5t-8.5 -4.5q-60 -60 -148 -171q-102 -128 -130 -168q-12 -18 -37 -52.5t-37 -51.5q-5 -8 -9 -8q-2 0 -4 2q-38 30 -80 49q-59 28 -59 65v6z" />
<glyph unicode="n" horiz-adv-x="890" d="M23 173q-1 5 -1 12q0 29 18 100q101 264 291 506q10 8 29 8q25 0 66 -14q74 -26 86 -63q-58 -76 -115 -158q-61 -92 -94 -170q-3 -9 0 -11q3 -3 8 3q95 115 222 251q57 62 158 160q73 68 97 71q21 3 40 3q62 0 95 -36q41 -47 53 -89q-66 -44 -144 -172t-110 -256 q-10 -43 0.5 -60t40.5 -7q24 10 83 69q110 117 166 176q76 82 122 112q27 18 50 18q16 0 31 -9q24 -23 23 -39q-84 -50 -165 -124q-80 -73 -125 -127q-50 -54 -107 -123q-56 -71 -105 -110q-47 -32 -90 -32q-56 0 -105 54q-47 52 -47 154q0 92 38 224q3 14 -37 -25 q-19 -19 -50 -52q-90 -96 -182 -220q-87 -119 -105 -149q-4 -7 -9 -7l-5 3q-5 5 -61 47q-53 41 -60 82z" />
<glyph unicode="o" horiz-adv-x="772" d="M70 173q-26 58 -26 133q0 110 56 257q86 188 244 294q90 55 188 56q65 0 132 -25q82 -37 112 -120q7 -19 7 -45q0 -28 -8 -65q-11 -92 -63 -201q-53 -109 -117 -185q15 -5 30 -5q31 0 62 20q47 29 85 70q34 36 86 103q50 65 78 77q14 5 30 5t34 -5q28 -8 28 -20 q0 -4 -3 -8q-72 -56 -150 -152q-99 -115 -178 -157q-48 -26 -101 -26q-34 0 -69 11q-64 -76 -156 -112q-60 -24 -112 -24q-35 0 -67 11q-88 29 -122 113zM275 188q23 -18 53 -17q38 0 87 27q34 27 40 40q-60 48 -75 142q-5 32 -5 68q0 70 20 157q1 1 0.5 2t-2.5 2q-3 3 -6 0 q-47 -47 -96 -143q-49 -111 -49 -184q0 -60 33 -94zM472 421v-7q0 -86 45 -111q18 19 56 90q90 157 109 267q1 8 1 14q0 37 -24 43q-3 1 -7 1q-26 0 -64 -40q-101 -116 -116 -257z" />
<glyph unicode="p" horiz-adv-x="841" d="M-304 -533q9 37 30 106q19 61 110 280q85 204 176 404q138 274 263 477q130 210 196 278q23 23 64 23q32 0 75 -14q75 -24 75 -47q0 -3 -1 -6q-1 -5 -6 -9q-26 -26 -123 -158q-95 -129 -103 -145q-8 -15 -3 -15q4 0 18 13q44 42 136 126q97 88 179 88h10 q127 -10 144 -115q4 -26 4 -53q0 -83 -38 -179q-58 -147 -174 -284q-115 -135 -223 -164q-36 -9 -74 -9q-48 0 -100 14q-92 27 -110 126q-147 -245 -251 -460q-83 -171 -171 -381q-52 7 -81 34q-23 22 -23 54q0 8 1 16zM276 312v-5q0 -48 35 -87q35 -38 70 -38h5 q53 4 109 62q55 57 102 132q47 76 78 151q32 78 41 122q2 10 2 19q0 29 -25 38q-8 3 -17 3q-27 0 -64 -28q-80 -60 -157 -139q-115 -115 -179 -230z" />
<glyph unicode="q" horiz-adv-x="893" d="M30 362q67 169 192 316q77 89 163 150q84 60 150 60q125 -3 249 -150q2 -6 -5 -7q-60 -2 -97 -15q-16 -5 -1 -10q14 -8 106 -82q77 -64 77 -78q0 -3 -3 -4q-53 -16 -108 -105q-55 -83 -124 -223q-3 -8 13 -3l23 10q39 19 135 107q98 98 195 210q97 111 139 124q9 3 18 3 q22 0 41 -19q4 -13 4 -20q0 -4 -1 -6q-54 -35 -125 -109q-66 -69 -163 -177.5t-105 -116.5q-57 -61 -87 -78q30 -58 30 -124q0 -30 -6 -62q-20 -101 -75 -204q-56 -106 -126 -191q-142 -177 -235 -224q-42 -27 -70 -27q-18 0 -30 10q-63 33 -63 123q0 10 1 21 q26 201 135 478q6 12 18.5 39t24 53t23.5 51q18 38 63 131l39 80q4 8 1 10.5t-10 -4.5q-84 -95 -127 -141q-92 -101 -175 -101q-17 0 -33 4q-45 10 -67 41q-38 46 -38 113q0 64 34 147zM203 286q-6 -19 -6 -34q0 -22 14 -34q24 -22 53 4q100 83 185 197q81 114 140 239 q7 19 1 19h-1q-2 0 -4 -1q-126 -67 -226 -167q-122 -122 -156 -223zM282 -579h1q62 2 196 188q131 182 148 402v12q0 44 -13 65q-11 19 -35 19q-5 0 -11 -1q-79 -119 -161 -288q-46 -94 -75 -164q-34 -81 -54 -147q-12 -41 -12 -62q0 -24 16 -24z" />
<glyph unicode="r" horiz-adv-x="600" d="M-102 256q99 101 163 183q11 14 31.5 39t32 40t26.5 36.5t25 40.5q-31 42 -31 86q0 20 6 40q18 64 70 114q51 51 118 81q56 24 101 24q10 0 20 -1q37 -7 61 -24q26 -17 -11 -51q-50 -42 -75 -86q-24 -45 -21 -57q5 -38 92 -91q61 -40 61 -71q0 -12 -10 -23 q-4 -4 -13 -13.5t-25.5 -26.5t-30.5 -31q-39 -43 -75 -114q-24 -46 -29 -90q-1 -5 -1 -9q0 -33 33 -39h4q36 0 113 92q72 88 110 132q82 98 141.5 148t108.5 56h5q38 0 55 -45q-84 -46 -172 -128q-52 -48 -118 -119q-27 -28 -145 -161q-104 -119 -165 -130q-19 -3 -35 -3 q-107 0 -123 129q-2 17 -2 35q0 95 58 220q6 13 6 25q0 28 -32 50q-10 -10 -50.5 -53.5t-71.5 -75.5q-70 -74 -133 -133q-9 -9 -18.5 -11t-15 -1t-20 7.5t-18.5 8.5z" />
<glyph unicode="s" horiz-adv-x="593" d="M-127 246l46 46q35 35 51 56q4 9 -12 24q-17 16 -34 19q-8 0 -5 6q31 31 41 40q23 18 46 18l44 -16q65 65 234 271q5 45 9 67t16 58.5t33 69.5q70 113 193 118h6q59 0 124 -36q67 -39 88 -100q0 -4 -3 -4q-156 -27 -194 -129q-23 -63 -23 -142q0 -46 8 -98 q15 -150 15 -207v-12q-8 -165 -126 -225q-59 -30 -114 -30q-93 0 -173 87q-36 38 -61 78q-20 36 -58 84q-45 -38 -68 -52q-27 -16 -46 -16q-24 0 -37 25zM105 362q6 -10 24 -41t25.5 -44t22.5 -36t29.5 -41.5t30.5 -36.5q33 -38 62 -37q23 0 45 22q21 21 21 73q0 36 -10 87 q-6 35 -26 119t-29 128z" />
<glyph unicode="t" horiz-adv-x="440" d="M77 329q11 93 28 153q41 143 119 316q76 170 159 300l-63 -6q-8 -1 -33 -1h-4l-80 60q-33 46 -33 59q0 5 5 5q189 0 285 8q32 47 78 114q47 68 99 89q55 20 118 20q21 0 43 -2q89 -9 146 -68q3 -6 -2 -6q-81 -42 -175 -142q399 12 702 12q24 0 61 -31q36 -29 52 -48 q1 -2 1 -3q0 -3 -5 -3q-378 -6 -892 -34q-74 -89 -141 -195q-66 -96 -127 -211q-83 -150 -128 -285q-28 -82 -29 -128q0 -29 12 -44q10 -17 25 -17q20 0 47 30q40 44 120 138t124 141q65 70 105 77q9 1 16 1q31 0 44 -22q6 -15 9 -22t2 -7q-66 -29 -132 -88 q-82 -75 -147 -160q-69 -89 -138 -167q-88 -97 -152 -97q-9 0 -18 2q-70 16 -94 109q-11 42 -11 91q0 30 4 62z" />
<glyph unicode="u" horiz-adv-x="855" d="M15 326q21 110 74 220q49 111 120 207q68 90 98 94h9q45 0 116 -27q37 -16 51.5 -28.5t6.5 -22.5q-75 -84 -140 -185q-107 -165 -127 -275q-4 -23 -5 -39q0 -22 10 -28q3 -2 8 -1q17 0 52 29q100 82 226 277q26 41 98 149q92 137 109 137q91 -6 155 -52q45 -38 45 -54 q0 -5 -5 -8q-48 -28 -93 -85q-64 -89 -97 -148q-37 -66 -63 -167q-4 -23 -4 -39q0 -40 26 -40q5 0 11 1q34 10 80 52q47 44 81 85q77 90 82 95q92 104 173 145q27 13 46 13q37 0 45 -52q-103 -37 -199 -135q-98 -99 -154 -168q-53 -63 -84 -97q-114 -125 -216 -125h-8 q-55 4 -76 46q-20 41 -22 97q0 54 20 148q6 28 -12 4q-74 -94 -157 -189q-93 -109 -172 -109q-27 0 -53 13q-70 32 -70 143q0 51 15 119z" />
<glyph unicode="v" horiz-adv-x="711" d="M48 183q-8 44 -8 91q0 69 17 146q28 127 92 249q65 121 135 165q26 16 63 16q35 0 80 -15q93 -30 111 -64q0 -6 -3 -6q-57 -24 -119 -95q-61 -70 -110 -157q-53 -94 -83 -192q-14 -47 -14 -81q0 -33 13 -53q16 -27 41 -27q39 0 98 66q99 111 182 289q63 136 102 283 q28 108 28 199q0 35 -4 67q0 4 5 4h2q71 -12 115 -68q37 -47 37 -93q0 -8 -1 -16q-18 -164 -109 -338q-61 -117 -131 -205q-71 -88 -120 -135q-114 -108 -183 -135q-51 -19 -91 -19q-14 0 -26 2q-98 17 -119 122z" />
<glyph unicode="w" horiz-adv-x="1160" d="M35 266q3 136 51 277q51 146 125 258q53 80 98 96q16 6 36 6q43 0 109 -27q97 -41 118 -74q4 -7 2.5 -9.5t-7.5 -0.5q-4 1 -8 1q-37 0 -105 -77q-159 -182 -218 -383q-12 -39 -11 -67q0 -37 20 -56q20 -20 55 10q37 31 72 76q40 50 66 92q38 58 38 59q50 85 90 168 q44 89 58 128q11 29 51 29h5q42 -1 92 -19q46 -17 78 -42q31 -25 15 -43q-73 -78 -132 -216q-41 -98 -48 -153q-5 -32 -5 -56q0 -70 41 -77q5 -1 10 -1q53 0 121 77q92 123 139 252t59 313q2 27 2 52q0 102 -26 188q-4 7 -1 9q2 2 7 2h4q189 -33 189 -223q0 -43 -10 -95 q-25 -138 -81 -257q-79 -163 -208 -303q-110 -120 -246 -120q-24 0 -49 4q-79 16 -109 90q-21 50 -21 116q0 30 4 64q1 5 -1 6t-6 -6q-36 -57 -138 -169q-97 -106 -177 -106h-6q-142 7 -142 194v13z" />
<glyph unicode="x" horiz-adv-x="820" d="M-119 -150q-2 10 -2 19q0 20 9 35q26 47 93 124q54 64 139 156q68 73 152 157l89 89q2 36 2 60q0 29 -3 43q-4 25 -38 25q-28 -2 -87 -51q-33 -28 -111 -98q-55 -47 -88 -66q-8 -5 -13 -5q-8 0 -7 12q0 12 8 35q1 7 62 84q63 79 143 157q63 62 129 108q68 47 119 48h3 q66 0 83 -40q11 -27 11 -67q0 -21 -3 -47q-2 -25 5.5 -27t26.5 18q94 92 164 153q72 62 138 111q68 50 89 50q32 0 65 -38q33 -37 24 -42q-122 -64 -278 -181q-135 -101 -238 -198q-16 -74 -16 -133q0 -42 8 -76q12 -50 43 -50q18 0 43 18q41 30 254 246q119 119 143 129 q35 13 56 13q7 0 13 -2q22 -6 20 -36q-44 -22 -157 -137q-29 -29 -91.5 -92t-89.5 -90q-143 -142 -183 -171q-51 -36 -110 -42h-8q-53 0 -89 49q-45 59 -45 176v20q2 27 -21 9q-91 -88 -191 -199q-102 -111 -151 -169q-70 -82 -95 -106q-4 -4 -7 -4q-2 0 -5 2q-5 5 -7 21z " />
<glyph unicode="y" horiz-adv-x="890" d="M-387 -446q13 90 98 135q8 4 10 1t-2 -14v-13q0 -76 55 -182q59 -86 150 -119q33 -12 68 -12q64 0 137 40q97 77 146 177q50 102 89 227q37 119 73 262q35 136 72 219q5 19 -0.5 21t-21.5 -14q-56 -69 -144 -152q-80 -75 -144 -75q-8 0 -15 1q-146 21 -156 169 q-1 19 -1 39q0 130 57 266q39 93 96 171q58 79 121 118q6 4 15 4q17 0 47 -12q42 -15 88 -44q42 -25 71 -52q28 -25 10 -29q-43 -11 -101 -78q-57 -64 -106 -147q-49 -82 -71 -158q-10 -33 -10 -58q0 -32 17 -50q6 -7 16 -7q30 0 94 74q85 99 173 225q84 121 134 200 q16 25 36.5 56.5t33.5 51.5t21 33q18 29 49 29q36 0 89 -40q87 -65 87 -81q0 -2 -1 -3q-81 -71 -181 -254q-58 -107 -101 -204q-46 -103 -65 -161q-19 -54 -55.5 -175t-58.5 -183q-66 -199 -174 -305q-107 -107 -270 -157q-75 -16 -141 -16q-63 0 -119 15q-112 28 -168 95 q-50 60 -50 131q0 17 3 35z" />
<glyph unicode="z" horiz-adv-x="632" d="M-439 -420q34 78 71 96q8 5 11 -6q33 -175 123 -257q75 -70 165 -70q16 0 33 2q101 15 205 119q101 101 176 304q58 155 58 277q0 20 -2 39q-7 81 -62 81q-36 0 -93 -35q-58 -25 -98 -55q-12 -9 -22 -9q-25 0 -40 58q213 165 245 233q13 27 13 48q0 32 -30 52 q-19 12 -43 12q-26 0 -59 -14q-65 -27 -182 -125q-41 -39 -57 -39q-7 0 -9 8q-6 26 16 56q28 54 184 224t256 186q13 2 26 2q107 0 221 -154q-28 -57 -114 -143q-51 -51 -191 -187q-9 -9 -7 -10h2t4 0.5t3 0.5l2 1q46 12 84 12q116 0 155 -109q14 -42 14.5 -93t-14.5 -113 q-29 -126 -104 -254q-121 -205 -254 -315q-163 -133 -344 -133q-124 0 -205 34t-136 118q-18 40 -18 80q0 39 17 78z" />
<glyph unicode="{" horiz-adv-x="1205" d="M63 261q5 174 48 340q45 166 83 253q91 207 233 430q139 218 273 277q104 45 193 -37q91 -82 73 -166q-13 -61 -92 -182q-76 -115 -182 -249q-106 -132 -213 -245q-111 -117 -185 -168q-20 -52 -35 -148q-14 -104 -13 -201q1 -101 26 -187q24 -86 82 -108q74 -28 153 22 t159 120q85 74 163 135q83 65 166 65q63 0 107 -57q44 -58 31 -59q-106 -15 -209 -73q-117 -67 -201 -118q-95 -58 -193 -102q-95 -42 -182 -26q-170 33 -229 173q-59 141 -56 311zM364 664q2 1 4 3q76 76 169 189q106 130 182 235q88 121 134 199q49 85 26 86 q-42 2 -119 -86t-158 -203q-80 -115 -147 -231q-66 -113 -88 -171q-8 -22 -3 -21z" />
<glyph unicode="|" horiz-adv-x="1559" d="M54 56q-14 105 0 218q16 116 40 197h-1q39 133 116 302q79 169 165 308q-25 -2 -62 -4.5t-63 -4.5t-40 -2q-45 -2 -81 57q-35 59 -14 59q125 0 158 1q40 1 172 11q44 66 101 135q53 66 87 80q65 24 162 1q97 -22 134 -61q2 -3 -2 -6q-82 -41 -174 -142q280 11 362 14 q155 5 389 5q30 0 49 -46q20 -45 11 -45q-294 -5 -474 -13q-194 -7 -419 -21q-48 -59 -164 -246q-113 -184 -197 -384q-85 -201 -103 -378q-17 -177 121 -229q76 -29 157 20q85 51 166 119q71 59 171 134q84 63 169 65q64 0 107 -58q43 -56 31 -58q-108 -15 -219 -70 q-134 -66 -223 -113q-108 -58 -215 -99q-103 -40 -192 -27q-106 16 -159 97q-51 80 -66 184z" />
<glyph unicode="}" horiz-adv-x="1910" d="M16 167q-4 49 85 273q90 223 258 385q57 -3 112 -18q57 -15 69 -53q-54 -74 -136 -210q-77 -129 -82 -164q0 -12 8 -4q18 27 90 117q54 69 155 188q80 93 156 172q73 77 93 75q89 -8 139.5 -42t62.5 -81q-42 -35 -141 -161q-96 -122 -154 -248q-2 -4 -1 -6t3 -2t4 2 q75 86 201 219q128 134 208 186q58 39 165 -30q96 -61 85 -75q-1 -1 -3 -2q-65 -24 -135 -145q-70 -120 -112 -262q-40 -139 -36 -261q6 -122 93 -147q76 -22 157 29q77 47 163 119q80 68 167 132q84 61 167 63q65 2 107 -58q44 -59 31 -61q-104 -15 -217 -71 q-89 -45 -218 -115q-109 -61 -211 -102q-101 -43 -191 -31q-103 4 -162 82q-57 76 -79 182q-21 106 -12 221q9 114 38 198q1 6 -1 7.5t-7 -2.5q-66 -51 -160 -184q-96 -137 -168 -247q-27 27 -100 50q-72 23 -71 80q2 65 38 148q40 93 68 174q1 4 -1.5 7.5t-8.5 -3.5 q-86 -96 -196 -242q-36 -48 -91 -121.5t-74 -98.5q-81 31 -113 59q-32 29 -42 79z" />
<glyph unicode="~" horiz-adv-x="1672" d="M38 254q18 144 102 297q86 156 205 273q120 120 211 120q128 -6 256 -144q7 -7 -4 -9q-55 -5 -94 -19q-14 -6 3 -12q36 -12 109 -70q72 -57 83 -84q1 -6 -4 -6q-44 -10 -97 -120q-50 -105 -83 -240q-30 -129 -25 -246q5 -116 74 -142q74 -28 157 22q80 48 168 122 q89 73 172 136q87 64 170 66q53 0 92 -39q40 -37 46 -77q-107 -15 -219 -72q-75 -37 -225 -115q-115 -61 -216 -101q-103 -43 -193 -29q-126 21 -192 175q-64 153 -21 396v1q5 40 20 77q16 40 19 58q3 12 0 12q-2 1 -7 -5q-7 -9 -27 -29q-15 -16 -70 -87q-61 -78 -113 -138 q-58 -68 -116 -123q-55 -52 -83 -41q-114 49 -98 193zM235 285q-12 -48 27 -13q35 31 55 51q76 82 164 196q102 134 145 196q21 30 3 22l-9 -5q-98 -59 -229 -198q-129 -138 -156 -249z" />
<glyph unicode="&#xa2;" horiz-adv-x="852" d="M40 1011q21 134 140 271q120 136 327 129l46 -12q39 77 100 203q21 42 79 -12q59 -53 38 -51q-18 0 -56 -48t-84 -128q62 -35 112 -84q50 -47 20 -85q-81 -101 -87 -145q-5 -44 -15 -34q-3 1 -23.5 8t-27.5 10.5t-22.5 11.5t-26.5 18t-21 24q-31 72 21 105t49 63 q-8 84 -145 -5q-135 -88 -199 -241q-102 -245 39 -296q142 -49 311 215q9 14 42 -35q34 -48 26 -70q-33 -83 -154 -144q-120 -62 -245 -39q-79 -171 -72 -241q-62 2 -56 74q8 74 58 187l-48 27q-160 111 -126 324z" />
<glyph unicode="&#xad;" d="M328 745q-14 36 0 80q15 50 21 68q194 102 404 111q212 11 256 -44q22 -27 49 -77q26 -47 23 -148q0 -17 -16 -7q-178 41 -391 38q-218 -3 -342 -25q-1 -1 -3 2q-1 1 -1 2z" />
<glyph unicode="&#x2000;" horiz-adv-x="897" />
<glyph unicode="&#x2001;" horiz-adv-x="1795" />
<glyph unicode="&#x2002;" horiz-adv-x="897" />
<glyph unicode="&#x2003;" horiz-adv-x="1795" />
<glyph unicode="&#x2004;" horiz-adv-x="598" />
<glyph unicode="&#x2005;" horiz-adv-x="448" />
<glyph unicode="&#x2006;" horiz-adv-x="299" />
<glyph unicode="&#x2007;" horiz-adv-x="299" />
<glyph unicode="&#x2008;" horiz-adv-x="224" />
<glyph unicode="&#x2009;" horiz-adv-x="359" />
<glyph unicode="&#x200a;" horiz-adv-x="99" />
<glyph unicode="&#x2010;" d="M328 745q-14 36 0 80q15 50 21 68q194 102 404 111q212 11 256 -44q22 -27 49 -77q26 -47 23 -148q0 -17 -16 -7q-178 41 -391 38q-218 -3 -342 -25q-1 -1 -3 2q-1 1 -1 2z" />
<glyph unicode="&#x2011;" d="M328 745q-14 36 0 80q15 50 21 68q194 102 404 111q212 11 256 -44q22 -27 49 -77q26 -47 23 -148q0 -17 -16 -7q-178 41 -391 38q-218 -3 -342 -25q-1 -1 -3 2q-1 1 -1 2z" />
<glyph unicode="&#x2012;" d="M328 745q-14 36 0 80q15 50 21 68q194 102 404 111q212 11 256 -44q22 -27 49 -77q26 -47 23 -148q0 -17 -16 -7q-178 41 -391 38q-218 -3 -342 -25q-1 -1 -3 2q-1 1 -1 2z" />
<glyph unicode="&#x2013;" horiz-adv-x="1449" d="M330 745q-18 36 0 80q21 50 29 68q261 102 544 111q285 11 345 -44q29 -27 66 -77q35 -47 31 -148q0 -17 -22 -7q-240 41 -527 38q-293 -3 -460 -25q-2 -1 -4 2q-2 1 -2 2z" />
<glyph unicode="&#x2014;" horiz-adv-x="2474" d="M340 745q-38 36 0 80q40 50 56 68q523 102 1089 111q571 11 689 -44q59 -27 132 -77q70 -47 62 -148q0 -17 -43 -7q-479 41 -1053 38q-587 -3 -921 -25q-3 -1 -8 2q-3 1 -3 2z" />
<glyph unicode="&#x2018;" horiz-adv-x="224" d="M70 1312q26 91 108 158q81 68 124 76q33 6 67 -13q34 -18 31 -30q-3 -19 -56 -43t-24 -62q3 -3 27 -33q24 -29 18 -86t-48 -108t-115 -47q-71 4 -114 55q-42 50 -18 133z" />
<glyph unicode="&#x2019;" horiz-adv-x="400" d="M264 1169q3 19 56 43t24 62l-27 32q-24 30 -18 87t48 108t115 47q71 -4 114 -55q42 -50 18 -133q-25 -89 -109 -159q-83 -67 -123 -75q-33 -6 -67 12q-34 19 -31 31z" />
<glyph unicode="&#x201c;" horiz-adv-x="572" d="M60 1306q25 89 107 159q82 68 124 76q33 7 67 -12q34 -18 31 -30q-3 -18 -56 -44q-53 -24 -23 -62q2 -1 27 -32q24 -29 17 -86q-4 -56 -47 -109q-42 -51 -114 -47q-72 5 -114 54t-19 133zM404 1308q27 90 108 159q82 68 124 76q33 7 66 -12q34 -18 32 -30q-4 -18 -57 -44 q-51 -24 -23 -61q3 -3 27 -33q26 -29 18 -86q-4 -56 -47 -109q-42 -51 -114 -47q-73 4 -115 54q-42 49 -19 133z" />
<glyph unicode="&#x201d;" horiz-adv-x="789" d="M52 1165q4 19 56 43q54 24 25 62q-1 1 -4 4.5t-10 11.5l-14 16q-24 31 -17 87q6 57 48 108t114 47q73 -6 115 -56t18 -132q-27 -91 -109 -159q-83 -68 -124 -75q-33 -6 -67 12q-32 19 -31 31zM397 1165q3 19 56 43t24 62l-27 32q-24 31 -17 87q6 57 48 108t114 47 q72 -6 114 -56t18 -132q-25 -90 -108 -159q-83 -68 -124 -75q-33 -6 -67 12q-34 19 -31 31z" />
<glyph unicode="&#x202f;" horiz-adv-x="359" />
<glyph unicode="&#x205f;" horiz-adv-x="448" />
<glyph unicode="&#x25fc;" horiz-adv-x="935" d="M0 0v935h935v-935h-935z" />
</font>
</defs>
</svg>
